<?xml version="1.0" encoding="UTF-8"?>
<svg version="1.1" xmlns="http://www.w3.org/2000/svg" width="310" height="111">
<path d="M0 0 C102.3 0 204.6 0 310 0 C310 36.63 310 73.26 310 111 C207.7 111 105.4 111 0 111 C0 74.37 0 37.74 0 0 Z " fill="#01213F" transform="translate(0,0)"/>
<path d="M0 0 C0.83528229 0.00202423 1.67056458 0.00404846 2.53115845 0.00613403 C3.82166611 0.00469894 3.82166611 0.00469894 5.13824463 0.00323486 C6.96924919 0.00255229 8.80025615 0.00441189 10.6312561 0.00857544 C13.39872904 0.01385779 16.16603479 0.00866721 18.9335022 0.00222778 C51.34250024 -0.01484775 51.34250024 -0.01484775 61.4100647 8.00222778 C68.71519384 15.95601533 69.49953447 23.12886239 69.25772095 33.57644653 C69.23741821 35.24610474 69.23741821 35.24610474 69.21670532 36.94949341 C69.18155092 39.67981865 69.13234201 42.40912397 69.07022095 45.13894653 C67.58522095 45.63394653 67.58522095 45.63394653 66.07022095 46.13894653 C65.98772095 47.02582153 65.90522095 47.91269653 65.82022095 48.82644653 C64.45201072 54.86937504 60.49070757 57.79034794 55.65615845 61.22097778 C54.07022095 62.13894653 54.07022095 62.13894653 52.07022095 62.13894653 C52.07022095 62.79894653 52.07022095 63.45894653 52.07022095 64.13894653 C39.8569674 67.96628459 26.75785342 67.28899738 14.07022095 67.13894653 C14.07807617 68.35795654 14.07807617 68.35795654 14.08609009 69.60159302 C14.10679089 73.25986975 14.11985898 76.91813421 14.13272095 80.57644653 C14.14109985 81.85584106 14.14947876 83.1352356 14.15811157 84.45339966 C14.16294556 86.27581177 14.16294556 86.27581177 14.1678772 88.13504028 C14.17573242 89.82391357 14.17573242 89.82391357 14.18374634 91.54690552 C14.07022095 94.13894653 14.07022095 94.13894653 13.07022095 95.13894653 C11.66673359 95.23754785 10.25841618 95.2697359 8.85147095 95.27175903 C7.57723267 95.27369263 7.57723267 95.27369263 6.2772522 95.27566528 C5.38393188 95.2717981 4.49061157 95.26793091 3.57022095 95.26394653 C2.67690063 95.26781372 1.78358032 95.27168091 0.8631897 95.27566528 C0.01369751 95.27437622 -0.83579468 95.27308716 -1.71102905 95.27175903 C-2.49542358 95.2706311 -3.27981812 95.26950317 -4.08798218 95.26834106 C-5.92977905 95.13894653 -5.92977905 95.13894653 -6.92977905 94.13894653 C-7.03034597 91.25288638 -7.0659328 88.39072079 -7.05917358 85.50418091 C-7.0609259 84.59855911 -7.06267822 83.69293732 -7.06448364 82.75987244 C-7.06890359 79.7507946 -7.06596367 76.74177502 -7.06259155 73.73269653 C-7.06326455 71.65143828 -7.06423454 69.5701801 -7.06549072 67.48892212 C-7.06696789 63.12079116 -7.06481254 58.7526806 -7.06015015 54.384552 C-7.05445285 48.771801 -7.05773176 43.15909781 -7.06372261 37.54634857 C-7.06732772 33.24683265 -7.06618987 28.94732815 -7.06359482 24.64781189 C-7.06292541 22.57765192 -7.06375445 20.50749093 -7.06607437 18.43733215 C-7.06860007 15.54943067 -7.06476147 12.66160776 -7.05917358 9.77371216 C-7.06119781 8.9092598 -7.06322205 8.04480743 -7.06530762 7.15415955 C-7.04038493 0.2386031 -6.9279513 0.0285371 0 0 Z " fill="#FCFCFD" transform="translate(124.92977905273438,8.861053466796875)"/>
<path d="M0 0 C0.82741699 0.01047363 1.65483398 0.02094727 2.50732422 0.03173828 C3.71799561 0.03923096 3.71799561 0.03923096 4.953125 0.046875 C6.49202393 0.07418701 6.49202393 0.07418701 8.06201172 0.10205078 C12.95013672 0.16392578 12.95013672 0.16392578 17.93701172 0.22705078 C18.26701172 13.09705078 18.59701172 25.96705078 18.93701172 39.22705078 C34.77701172 39.55705078 50.61701172 39.88705078 66.93701172 40.22705078 C66.89740766 27.43711283 66.89740766 27.43711283 66.84692383 14.6472168 C66.84400469 13.05013088 66.84145613 11.45304423 66.83935547 9.85595703 C66.8342395 9.01899292 66.82912354 8.18202881 66.82385254 7.31970215 C66.82354247 5.28846813 66.87460984 3.25732607 66.93701172 1.22705078 C68.49307923 -0.32901673 69.99658543 0.0973431 72.15576172 0.09423828 C73.43 0.09230469 73.43 0.09230469 74.72998047 0.09033203 C75.62330078 0.09419922 76.51662109 0.09806641 77.43701172 0.10205078 C78.33033203 0.09818359 79.22365234 0.09431641 80.14404297 0.09033203 C80.99353516 0.09162109 81.84302734 0.09291016 82.71826172 0.09423828 C83.50265625 0.09536621 84.28705078 0.09649414 85.09521484 0.09765625 C86.93701172 0.22705078 86.93701172 0.22705078 87.93701172 1.22705078 C88.03226539 4.14899743 88.06253908 7.04725408 88.05053711 9.96948242 C88.05068314 10.88646408 88.05082916 11.80344574 88.05097961 12.74821472 C88.05028011 15.79456914 88.042486 18.84086323 88.03466797 21.88720703 C88.03280392 23.99328071 88.03137996 26.09935481 88.03038025 28.20542908 C88.02655403 33.76047961 88.01672286 39.31550419 88.00567627 44.87054443 C87.99546439 50.53429818 87.99088311 56.19805611 87.98583984 61.86181641 C87.97510068 72.98357447 87.95750304 84.10530641 87.93701172 95.22705078 C80.67701172 95.22705078 73.41701172 95.22705078 65.93701172 95.22705078 C65.44201172 77.90205078 65.44201172 77.90205078 64.93701172 60.22705078 C49.42701172 59.89705078 33.91701172 59.56705078 17.93701172 59.22705078 C17.97661319 70.7005849 17.97661319 70.7005849 18.02709961 82.17407227 C18.03001883 83.6070956 18.03256738 85.04011976 18.03466797 86.47314453 C18.03978394 87.22374146 18.0448999 87.97433838 18.0501709 88.74768066 C18.05048164 90.57452679 17.99932285 92.40126761 17.93701172 94.22705078 C16.93701172 95.22705078 16.93701172 95.22705078 14.89575195 95.34057617 C14.02120361 95.33533936 13.14665527 95.33010254 12.24560547 95.32470703 C11.30136719 95.32148437 10.35712891 95.31826172 9.38427734 95.31494141 C8.39105469 95.3065625 7.39783203 95.29818359 6.37451172 95.28955078 C5.37742187 95.28503906 4.38033203 95.28052734 3.35302734 95.27587891 C0.88096323 95.26405085 -1.59098346 95.24756927 -4.06298828 95.22705078 C-4.10925418 83.13591443 -4.14482817 71.04479902 -4.16661263 58.9535923 C-4.17706612 53.33963528 -4.19125382 47.72573866 -4.21386719 42.11181641 C-4.23553982 36.69778217 -4.2475451 31.28380616 -4.25274277 25.8697319 C-4.25644858 23.80038918 -4.26368472 21.73104977 -4.27444839 19.66173172 C-4.28888919 16.77148713 -4.29096934 13.88148558 -4.29003906 10.99121094 C-4.29722961 10.12878281 -4.30442017 9.26635468 -4.31182861 8.37779236 C-4.28414757 0.47150973 -4.28414757 0.47150973 0 0 Z " fill="#FDFDFD" transform="translate(13.06298828125,8.77294921875)"/>
<path d="M0 0 C0.98033203 -0.01224609 1.96066406 -0.02449219 2.97070312 -0.03710938 C3.90720703 -0.03904297 4.84371094 -0.04097656 5.80859375 -0.04296875 C6.67154053 -0.04707764 7.5344873 -0.05118652 8.42358398 -0.05541992 C10.5625 0.1875 10.5625 0.1875 12.5625 2.1875 C12.78955078 4.89306641 12.78955078 4.89306641 12.7578125 8.2890625 C12.75136719 9.50078125 12.74492187 10.7125 12.73828125 11.9609375 C12.72152344 13.23195313 12.70476562 14.50296875 12.6875 15.8125 C12.67847656 17.09125 12.66945312 18.37 12.66015625 19.6875 C12.63652303 22.85435167 12.60357629 26.02083424 12.5625 29.1875 C16.82380762 28.20212917 16.82380762 28.20212917 19.6796875 25.26953125 C19.97101563 24.58246094 20.26234375 23.89539063 20.5625 23.1875 C22.4453125 21.51171875 22.4453125 21.51171875 24.6875 19.875 C28.63500522 16.92871985 32.30822473 13.80506616 35.93359375 10.47265625 C37.5625 9.1875 37.5625 9.1875 39.5625 9.1875 C39.8925 8.1975 40.2225 7.2075 40.5625 6.1875 C45.33342929 1.18733917 50.21152977 -0.21939908 57.00390625 -0.3984375 C59.71382488 -0.38026488 62.41712705 -0.28924921 65.125 -0.1875 C66.52923928 -0.15734315 67.93354141 -0.12997746 69.33789062 -0.10546875 C72.74772153 -0.03516296 76.1542811 0.06321712 79.5625 0.1875 C80.0575 2.1675 80.0575 2.1675 80.5625 4.1875 C76.07496692 8.24222532 71.60025239 11.8289984 66.5625 15.1875 C64.87487149 16.8329378 63.2084651 18.50038577 61.5625 20.1875 C56.05703552 25.1875 56.05703552 25.1875 53.5625 25.1875 C53.30339844 25.81269531 53.04429687 26.43789063 52.77734375 27.08203125 C51.13048295 29.93623695 48.89835343 30.52501524 45.984375 31.84375 C41.94184352 34.08670295 38.62719269 37.20989184 35.17578125 40.26171875 C32.50661456 42.22868314 30.82012295 42.84119414 27.5625 43.1875 C27.2840625 45.0746875 27.2840625 45.0746875 27 47 C26.89558594 47.70769531 26.79117188 48.41539063 26.68359375 49.14453125 C26.42345201 51.3900342 26.42345201 51.3900342 27.5625 54.1875 C28.573125 54.208125 29.58375 54.22875 30.625 54.25 C34.9479422 54.86508797 36.81183771 57.07197421 39.66015625 60.2109375 C42.38631898 63.04345976 45.4859444 65.28256748 48.64453125 67.609375 C50.5625 69.1875 50.5625 69.1875 52.5625 72.1875 C53.325625 72.64125 54.08875 73.095 54.875 73.5625 C57.35488153 75.06196325 59.01566635 76.65989443 61.02172852 78.71191406 C64.7845289 82.31552134 69.02292714 85.42267829 73.11914062 88.63476562 C73.81845703 89.19228516 74.51777344 89.74980469 75.23828125 90.32421875 C75.87677002 90.82655029 76.51525879 91.32888184 77.1730957 91.84643555 C77.63159912 92.28898682 78.09010254 92.73153809 78.5625 93.1875 C78.5625 93.8475 78.5625 94.5075 78.5625 95.1875 C73.97937916 95.30355098 69.39663551 95.37470362 64.8125 95.4375 C63.51054687 95.47101563 62.20859375 95.50453125 60.8671875 95.5390625 C59.61679687 95.55195312 58.36640625 95.56484375 57.078125 95.578125 C55.92602539 95.59907227 54.77392578 95.62001953 53.58691406 95.64160156 C49.91907131 95.09089221 48.9310857 93.94225378 46.5625 91.1875 C45.325 90.7234375 45.325 90.7234375 44.0625 90.25 C41.5625 89.1875 41.5625 89.1875 39.73046875 86.85546875 C37.47799065 84.08350021 35.3238233 82.42891313 32.375 80.4375 C27.54739129 77.0581739 23.6345777 73.37516209 19.73046875 68.97265625 C17.03883039 66.75629818 14.96594664 66.64900887 11.5625 66.1875 C11.57035522 67.49738892 11.57035522 67.49738892 11.57836914 68.83374023 C11.59537751 72.06339273 11.60793369 75.29302245 11.61743164 78.52270508 C11.6224708 79.92245228 11.62930216 81.3221942 11.63793945 82.72192383 C11.6500232 84.72995777 11.65519807 86.73802957 11.66015625 88.74609375 C11.66801147 90.56065063 11.66801147 90.56065063 11.67602539 92.41186523 C11.5625 95.1875 11.5625 95.1875 10.5625 96.1875 C9.01294441 96.28649523 7.45896327 96.31829524 5.90625 96.3203125 C4.49666016 96.32224609 4.49666016 96.32224609 3.05859375 96.32421875 C1.57552734 96.31841797 1.57552734 96.31841797 0.0625 96.3125 C-0.92621094 96.31636719 -1.91492188 96.32023437 -2.93359375 96.32421875 C-3.87332031 96.32292969 -4.81304687 96.32164063 -5.78125 96.3203125 C-6.64943359 96.31918457 -7.51761719 96.31805664 -8.41210938 96.31689453 C-10.4375 96.1875 -10.4375 96.1875 -11.4375 95.1875 C-11.53808243 92.27092371 -11.57365211 89.37799054 -11.56689453 86.4609375 C-11.56864685 85.54556213 -11.57039917 84.63018677 -11.57220459 83.68707275 C-11.57662461 80.64552951 -11.57368459 77.60404389 -11.5703125 74.5625 C-11.5709855 72.4588215 -11.57195548 70.35514308 -11.57321167 68.25146484 C-11.57468885 63.83625551 -11.57253345 59.42106637 -11.56787109 55.00585938 C-11.5621738 49.33257439 -11.5654527 43.65933671 -11.57144356 37.98605347 C-11.57504864 33.64021444 -11.57391083 29.29438672 -11.57131577 24.94854736 C-11.57064635 22.8560587 -11.57147543 20.76356903 -11.57379532 18.67108154 C-11.57632098 15.75204734 -11.57248248 12.83309088 -11.56689453 9.9140625 C-11.56891876 9.0402594 -11.57094299 8.1664563 -11.57302856 7.26617432 C-11.54050234 -1.85627112 -8.05518381 0.00527517 0 0 Z " fill="#FAFBFB" transform="translate(218.4375,7.8125)"/>
<path d="M0 0 C1.18916016 -0.03287109 2.37832031 -0.06574219 3.60351562 -0.09960938 C13.38360002 -0.16001416 13.38360002 -0.16001416 16.4609375 2.8203125 C17.99224878 5.14153096 18.88262471 6.69362238 19.1875 9.4375 C19.8475 9.4375 20.5075 9.4375 21.1875 9.4375 C21.24199838 11.16630982 21.28051688 12.89562712 21.3125 14.625 C21.33570313 15.58792969 21.35890625 16.55085938 21.3828125 17.54296875 C21.09547624 21.80129215 20.05118747 24.52146783 17.125 27.625 C10.44484034 31.74680064 3.35488759 31.62449472 -4.25 31.6875 C-5.05590576 31.6968457 -5.86181152 31.70619141 -6.69213867 31.71582031 C-12.56654901 31.68345099 -12.56654901 31.68345099 -14.8125 29.4375 C-15.07128906 26.76367188 -15.07128906 26.76367188 -15.078125 23.40625 C-15.08070313 22.20355469 -15.08328125 21.00085938 -15.0859375 19.76171875 C-15.07820312 18.49972656 -15.07046875 17.23773438 -15.0625 15.9375 C-15.07023438 14.67550781 -15.07796875 13.41351563 -15.0859375 12.11328125 C-15.08335937 10.91058594 -15.08078125 9.70789063 -15.078125 8.46875 C-15.07586914 7.36080078 -15.07361328 6.25285156 -15.07128906 5.11132812 C-14.36853939 -2.14953456 -5.52536225 0.02669257 0 0 Z " fill="#01203E" transform="translate(152.8125,26.5625)"/>
<path d="M0 0 C0.82741699 0.01047363 1.65483398 0.02094727 2.50732422 0.03173828 C3.71799561 0.03923096 3.71799561 0.03923096 4.953125 0.046875 C6.49202393 0.07418701 6.49202393 0.07418701 8.06201172 0.10205078 C12.95013672 0.16392578 12.95013672 0.16392578 17.93701172 0.22705078 C17.93701172 12.76705078 17.93701172 25.30705078 17.93701172 38.22705078 C17.60701172 38.22705078 17.27701172 38.22705078 16.93701172 38.22705078 C16.60701172 26.34705078 16.27701172 14.46705078 15.93701172 2.22705078 C10.32701172 2.22705078 4.71701172 2.22705078 -1.06298828 2.22705078 C-1.06298828 32.25705078 -1.06298828 62.28705078 -1.06298828 93.22705078 C4.54701172 93.55705078 10.15701172 93.88705078 15.93701172 94.22705078 C15.90220703 90.25544922 15.90220703 90.25544922 15.86669922 86.20361328 C15.8511114 83.64534993 15.83896171 81.08709182 15.82714844 78.52880859 C15.8170774 76.74786011 15.80341987 74.96692821 15.78613281 73.18603516 C15.76193259 70.62935295 15.75053988 68.07288893 15.74169922 65.51611328 C15.73137665 64.71710602 15.72105408 63.91809875 15.7104187 63.09487915 C15.71001945 61.13747859 15.81460103 59.18062002 15.93701172 57.22705078 C18.41018464 54.75387786 19.13291874 54.97102286 22.53857422 54.95239258 C23.49296387 54.94286057 24.44735352 54.93332855 25.43066406 54.92350769 C26.46400879 54.9244191 27.49735352 54.92533051 28.56201172 54.92626953 C30.14876709 54.91984184 30.14876709 54.91984184 31.76757812 54.9132843 C34.00699141 54.90753422 36.24642337 54.9070457 38.48583984 54.91137695 C41.92301075 54.91453791 45.35932227 54.89108209 48.79638672 54.86572266 C50.96826063 54.86344994 53.14013686 54.86274604 55.31201172 54.86376953 C56.34535645 54.85455978 57.37870117 54.84535004 58.44335938 54.83586121 C59.39774902 54.84209 60.35213867 54.84831879 61.33544922 54.85473633 C62.17769043 54.8541069 63.01993164 54.85347748 63.88769531 54.85282898 C64.56396973 54.97632217 65.24024414 55.09981537 65.93701172 55.22705078 C68.43037383 58.96709395 68.191824 61.85266687 68.13232422 66.17626953 C68.12949432 66.94888626 68.12666443 67.72150299 68.12374878 68.51753235 C68.1125605 70.98336321 68.08745875 73.44882984 68.06201172 75.91455078 C68.05198015 77.58707157 68.04285461 79.25959807 68.03466797 80.93212891 C68.01432772 85.03068916 67.97517757 89.12846263 67.93701172 93.22705078 C73.54701172 93.22705078 79.15701172 93.22705078 84.93701172 93.22705078 C84.93701172 62.86705078 84.93701172 32.50705078 84.93701172 1.22705078 C79.32701172 1.22705078 73.71701172 1.22705078 67.93701172 1.22705078 C67.93701172 0.89705078 67.93701172 0.56705078 67.93701172 0.22705078 C71.08282595 0.19816564 74.22860641 0.18029155 77.37451172 0.16455078 C78.72125977 0.15198242 78.72125977 0.15198242 80.09521484 0.13916016 C80.94921875 0.1359375 81.80322266 0.13271484 82.68310547 0.12939453 C83.47386475 0.12415771 84.26462402 0.1189209 85.0793457 0.11352539 C86.93701172 0.22705078 86.93701172 0.22705078 87.93701172 1.22705078 C88.03226539 4.14899743 88.06253908 7.04725408 88.05053711 9.96948242 C88.05068314 10.88646408 88.05082916 11.80344574 88.05097961 12.74821472 C88.05028011 15.79456914 88.042486 18.84086323 88.03466797 21.88720703 C88.03280392 23.99328071 88.03137996 26.09935481 88.03038025 28.20542908 C88.02655403 33.76047961 88.01672286 39.31550419 88.00567627 44.87054443 C87.99546439 50.53429818 87.99088311 56.19805611 87.98583984 61.86181641 C87.97510068 72.98357447 87.95750304 84.10530641 87.93701172 95.22705078 C80.67701172 95.22705078 73.41701172 95.22705078 65.93701172 95.22705078 C65.44201172 77.90205078 65.44201172 77.90205078 64.93701172 60.22705078 C49.42701172 59.89705078 33.91701172 59.56705078 17.93701172 59.22705078 C17.97661319 70.7005849 17.97661319 70.7005849 18.02709961 82.17407227 C18.03001883 83.6070956 18.03256738 85.04011976 18.03466797 86.47314453 C18.03978394 87.22374146 18.0448999 87.97433838 18.0501709 88.74768066 C18.05048164 90.57452679 17.99932285 92.40126761 17.93701172 94.22705078 C16.93701172 95.22705078 16.93701172 95.22705078 14.89575195 95.34057617 C14.02120361 95.33533936 13.14665527 95.33010254 12.24560547 95.32470703 C11.30136719 95.32148437 10.35712891 95.31826172 9.38427734 95.31494141 C8.39105469 95.3065625 7.39783203 95.29818359 6.37451172 95.28955078 C5.37742187 95.28503906 4.38033203 95.28052734 3.35302734 95.27587891 C0.88096323 95.26405085 -1.59098346 95.24756927 -4.06298828 95.22705078 C-4.10925418 83.13591443 -4.14482817 71.04479902 -4.16661263 58.9535923 C-4.17706612 53.33963528 -4.19125382 47.72573866 -4.21386719 42.11181641 C-4.23553982 36.69778217 -4.2475451 31.28380616 -4.25274277 25.8697319 C-4.25644858 23.80038918 -4.26368472 21.73104977 -4.27444839 19.66173172 C-4.28888919 16.77148713 -4.29096934 13.88148558 -4.29003906 10.99121094 C-4.29722961 10.12878281 -4.30442017 9.26635468 -4.31182861 8.37779236 C-4.28414757 0.47150973 -4.28414757 0.47150973 0 0 Z " fill="#B4BDC6" transform="translate(13.06298828125,8.77294921875)"/>
<path d="M0 0 C0.91120605 0.01047363 1.82241211 0.02094727 2.76123047 0.03173828 C4.09371826 0.03923096 4.09371826 0.03923096 5.453125 0.046875 C7.14864502 0.07418701 7.14864502 0.07418701 8.87841797 0.10205078 C12.46716797 0.14330078 16.05591797 0.18455078 19.75341797 0.22705078 C19.75341797 13.09705078 19.75341797 25.96705078 19.75341797 39.22705078 C34.93341797 39.22705078 50.11341797 39.22705078 65.75341797 39.22705078 C65.67425993 27.14029168 65.67425993 27.14029168 65.57324219 15.05371094 C65.5674023 13.54118124 65.56230556 12.02864842 65.55810547 10.51611328 C65.54787354 9.72744873 65.5376416 8.93878418 65.52709961 8.1262207 C65.52646625 6.15838427 65.63035465 4.19103552 65.75341797 2.22705078 C67.75341797 0.22705078 67.75341797 0.22705078 70.09179688 0 C71.04489746 0.01047363 71.99799805 0.02094727 72.97998047 0.03173828 C74.52685547 0.04140625 74.52685547 0.04140625 76.10498047 0.05126953 C77.72533203 0.07640625 77.72533203 0.07640625 79.37841797 0.10205078 C80.46638672 0.11107422 81.55435547 0.12009766 82.67529297 0.12939453 C85.36821949 0.15301669 88.06071052 0.18595522 90.75341797 0.22705078 C90.77655024 12.70935105 90.79433759 25.19164624 90.80523014 37.67396355 C90.81045702 43.469499 90.81755116 49.26501984 90.82885742 55.06054688 C90.83969318 60.6496406 90.84569628 66.23872022 90.84829521 71.82782364 C90.85014821 73.96414538 90.85376645 76.10046631 90.85914803 78.23678207 C90.86636757 81.22037191 90.86740852 84.20390289 90.86694336 87.1875 C90.87053864 88.07798035 90.87413391 88.96846069 90.87783813 89.88592529 C90.86747013 95.99894646 90.86747013 95.99894646 89.75341797 98.22705078 C85.79514562 98.28490725 81.83698127 98.32059795 77.87841797 98.35205078 C76.75048828 98.36880859 75.62255859 98.38556641 74.46044922 98.40283203 C72.84589844 98.4125 72.84589844 98.4125 71.19873047 98.42236328 C70.20373535 98.43283691 69.20874023 98.44331055 68.18359375 98.45410156 C65.75341797 98.22705078 65.75341797 98.22705078 63.75341797 96.22705078 C63.51049805 93.21777344 63.51049805 93.21777344 63.52294922 89.39111328 C63.52340744 88.71535248 63.52386566 88.03959167 63.52433777 87.34335327 C63.52736024 85.91264086 63.53524645 84.48193174 63.54760742 83.05126953 C63.56578887 80.86755628 63.56811757 78.68426911 63.56787109 76.50048828 C63.60565254 65.81811251 63.60565254 65.81811251 64.75341797 61.22705078 C49.90341797 61.22705078 35.05341797 61.22705078 19.75341797 61.22705078 C19.79301944 72.7005849 19.79301944 72.7005849 19.84350586 84.17407227 C19.84642508 85.6070956 19.84897363 87.04011976 19.85107422 88.47314453 C19.85619019 89.22374146 19.86130615 89.97433838 19.86657715 90.74768066 C19.86688789 92.57452679 19.8157291 94.40126761 19.75341797 96.22705078 C18.75341797 97.22705078 18.75341797 97.22705078 16.7121582 97.34057617 C15.83760986 97.33533936 14.96306152 97.33010254 14.06201172 97.32470703 C13.11777344 97.32148437 12.17353516 97.31826172 11.20068359 97.31494141 C10.20746094 97.3065625 9.21423828 97.29818359 8.19091797 97.28955078 C7.19382812 97.28503906 6.19673828 97.28052734 5.16943359 97.27587891 C2.69736948 97.26405085 0.22542279 97.24756927 -2.24658203 97.22705078 C-2.24658203 96.89705078 -2.24658203 96.56705078 -2.24658203 96.22705078 C4.35341797 95.89705078 10.95341797 95.56705078 17.75341797 95.22705078 C18.08341797 83.67705078 18.41341797 72.12705078 18.75341797 60.22705078 C25.428672 60.20414675 32.10379077 60.18421814 38.77905273 60.17211914 C41.05184388 60.16707753 43.32463177 60.16024441 45.59741211 60.15161133 C48.85645348 60.13953817 52.11545214 60.13382091 55.37451172 60.12939453 C56.39741806 60.12423325 57.4203244 60.11907196 58.47422791 60.11375427 C59.41512772 60.11367874 60.35602753 60.11360321 61.32543945 60.11352539 C62.15816879 60.11130478 62.99089813 60.10908417 63.84886169 60.10679626 C65.75341797 60.22705078 65.75341797 60.22705078 66.75341797 61.22705078 C66.84193326 63.820644 66.86867742 66.38744769 66.85107422 68.98095703 C66.84965927 69.75640366 66.84824432 70.53185028 66.8467865 71.33079529 C66.84117142 73.81708572 66.82861643 76.30328738 66.81591797 78.78955078 C66.81090491 80.47119011 66.80634167 82.15283084 66.80224609 83.83447266 C66.79204629 87.96539408 66.77247402 92.0961226 66.75341797 96.22705078 C74.01341797 96.22705078 81.27341797 96.22705078 88.75341797 96.22705078 C88.42341797 65.20705078 88.09341797 34.18705078 87.75341797 2.22705078 C81.48341797 2.22705078 75.21341797 2.22705078 68.75341797 2.22705078 C68.42341797 15.09705078 68.09341797 27.96705078 67.75341797 41.22705078 C60.93574946 41.24995448 54.11821338 41.26988319 47.30053711 41.28198242 C44.97924346 41.28702412 42.657953 41.2938573 40.33666992 41.30249023 C37.00813002 41.31456303 33.67963195 41.32028057 30.35107422 41.32470703 C28.78390404 41.33244896 28.78390404 41.33244896 27.18507385 41.34034729 C26.22415329 41.34042282 25.26323273 41.34049835 24.27319336 41.34057617 C23.42269913 41.34279678 22.5722049 41.3450174 21.69593811 41.3473053 C19.75341797 41.22705078 19.75341797 41.22705078 18.75341797 40.22705078 C18.66476589 37.34271258 18.63820501 34.4824292 18.65576172 31.59814453 C18.65717667 30.73391373 18.65859161 29.86968292 18.66004944 28.97926331 C18.66566558 26.20765786 18.67822078 23.43613198 18.69091797 20.66455078 C18.69593089 18.79020299 18.70049416 16.91585393 18.70458984 15.04150391 C18.71564025 10.43665535 18.73291567 5.83186657 18.75341797 1.22705078 C15.44055277 1.36525347 12.12823808 1.51388856 8.81591797 1.66455078 C7.39762695 1.72352539 7.39762695 1.72352539 5.95068359 1.78369141 C5.0515625 1.82558594 4.15244141 1.86748047 3.22607422 1.91064453 C1.97709351 1.9656311 1.97709351 1.9656311 0.70288086 2.02172852 C-1.24997061 2.02072182 -1.24997061 2.02072182 -2.24658203 3.22705078 C-2.37183354 6.08717975 -2.43267924 8.92433232 -2.4519043 11.78588867 C-2.46180389 12.68336319 -2.47170349 13.58083771 -2.48190308 14.50550842 C-2.51361743 17.48688066 -2.53831459 20.46826887 -2.56298828 23.44970703 C-2.58354924 25.51094489 -2.60454547 27.57217844 -2.6259613 29.63340759 C-2.68127063 35.07004322 -2.73064069 40.50671745 -2.77880859 45.94342041 C-2.82895909 51.4865667 -2.88467875 57.02965664 -2.93994141 62.57275391 C-3.04763129 73.45747144 -3.14905205 84.34223781 -3.24658203 95.22705078 C-3.57658203 95.22705078 -3.90658203 95.22705078 -4.24658203 95.22705078 C-4.29284793 83.13591443 -4.32842192 71.04479902 -4.35020638 58.9535923 C-4.36065987 53.33963528 -4.37484757 47.72573866 -4.39746094 42.11181641 C-4.41913357 36.69778217 -4.43113885 31.28380616 -4.43633652 25.8697319 C-4.44004233 23.80038918 -4.44727847 21.73104977 -4.45804214 19.66173172 C-4.47248294 16.77148713 -4.47456309 13.88148558 -4.47363281 10.99121094 C-4.48082336 10.12878281 -4.48801392 9.26635468 -4.49542236 8.37779236 C-4.46767136 0.45152514 -4.46767136 0.45152514 0 0 Z " fill="#405870" transform="translate(12.24658203125,7.77294921875)"/>
<path d="M0 0 C0.98033203 -0.01224609 1.96066406 -0.02449219 2.97070312 -0.03710938 C3.90720703 -0.03904297 4.84371094 -0.04097656 5.80859375 -0.04296875 C6.67154053 -0.04707764 7.5344873 -0.05118652 8.42358398 -0.05541992 C10.5625 0.1875 10.5625 0.1875 12.5625 2.1875 C12.78955078 4.89306641 12.78955078 4.89306641 12.7578125 8.2890625 C12.75136719 9.50078125 12.74492187 10.7125 12.73828125 11.9609375 C12.72152344 13.23195313 12.70476562 14.50296875 12.6875 15.8125 C12.67847656 17.09125 12.66945312 18.37 12.66015625 19.6875 C12.63652303 22.85435167 12.60357629 26.02083424 12.5625 29.1875 C16.82380762 28.20212917 16.82380762 28.20212917 19.6796875 25.26953125 C19.97101563 24.58246094 20.26234375 23.89539063 20.5625 23.1875 C22.4453125 21.51171875 22.4453125 21.51171875 24.6875 19.875 C28.63500522 16.92871985 32.30822473 13.80506616 35.93359375 10.47265625 C37.5625 9.1875 37.5625 9.1875 39.5625 9.1875 C39.8925 8.1975 40.2225 7.2075 40.5625 6.1875 C45.33342929 1.18733917 50.21152977 -0.21939908 57.00390625 -0.3984375 C59.71382488 -0.38026488 62.41712705 -0.28924921 65.125 -0.1875 C66.52923928 -0.15734315 67.93354141 -0.12997746 69.33789062 -0.10546875 C72.74772153 -0.03516296 76.1542811 0.06321712 79.5625 0.1875 C80.0575 2.1675 80.0575 2.1675 80.5625 4.1875 C76.07496692 8.24222532 71.60025239 11.8289984 66.5625 15.1875 C64.87487149 16.8329378 63.2084651 18.50038577 61.5625 20.1875 C56.05703552 25.1875 56.05703552 25.1875 53.5625 25.1875 C53.335625 25.80625 53.10875 26.425 52.875 27.0625 C51.18320165 29.80160209 49.57005839 30.23774472 46.5625 31.1875 C50.05805807 26.65272196 53.47334579 23.40029589 58.1875 20.125 C62.44403498 17.15572358 64.72595199 14.53687362 67.5625 10.1875 C69.8518277 8.48172642 72.19872164 6.96872021 74.63671875 5.484375 C76.69856587 4.32543663 76.69856587 4.32543663 77.5625 2.1875 C68.3225 2.1875 59.0825 2.1875 49.5625 2.1875 C49.2325 3.1775 48.9025 4.1675 48.5625 5.1875 C46.84765625 6.6953125 46.84765625 6.6953125 44.625 8.3125 C40.10669998 11.69221724 36.01187682 15.38670273 31.921875 19.26953125 C29.5625 21.1875 29.5625 21.1875 27.0390625 22.1015625 C22.75568794 23.97976144 20.69781354 28.03648889 18.0390625 31.75390625 C14.93655301 34.80258671 12.82695655 34.97479596 8.5625 35.1875 C7.61876917 31.28229735 7.51265152 27.80061436 7.68359375 23.79296875 C7.75610352 21.98989258 7.75610352 21.98989258 7.83007812 20.15039062 C7.88615234 18.90451172 7.94222656 17.65863281 8 16.375 C8.05220703 15.10978516 8.10441406 13.84457031 8.15820312 12.54101562 C8.28763222 9.42295099 8.424361 6.3051909 8.5625 3.1875 C2.6225 3.1875 -3.3175 3.1875 -9.4375 3.1875 C-9.4375 33.5475 -9.4375 63.9075 -9.4375 95.1875 C-3.1675 95.1875 3.1025 95.1875 9.5625 95.1875 C9.5625 84.9575 9.5625 74.7275 9.5625 64.1875 C11.2125 64.1875 12.8625 64.1875 14.5625 64.1875 C15.0575 65.1775 15.0575 65.1775 15.5625 66.1875 C14.2425 66.1875 12.9225 66.1875 11.5625 66.1875 C11.57035522 67.49738892 11.57035522 67.49738892 11.57836914 68.83374023 C11.59537751 72.06339273 11.60793369 75.29302245 11.61743164 78.52270508 C11.6224708 79.92245228 11.62930216 81.3221942 11.63793945 82.72192383 C11.6500232 84.72995777 11.65519807 86.73802957 11.66015625 88.74609375 C11.66801147 90.56065063 11.66801147 90.56065063 11.67602539 92.41186523 C11.5625 95.1875 11.5625 95.1875 10.5625 96.1875 C9.01294441 96.28649523 7.45896327 96.31829524 5.90625 96.3203125 C4.49666016 96.32224609 4.49666016 96.32224609 3.05859375 96.32421875 C1.57552734 96.31841797 1.57552734 96.31841797 0.0625 96.3125 C-0.92621094 96.31636719 -1.91492188 96.32023437 -2.93359375 96.32421875 C-3.87332031 96.32292969 -4.81304687 96.32164063 -5.78125 96.3203125 C-6.64943359 96.31918457 -7.51761719 96.31805664 -8.41210938 96.31689453 C-10.4375 96.1875 -10.4375 96.1875 -11.4375 95.1875 C-11.53808243 92.27092371 -11.57365211 89.37799054 -11.56689453 86.4609375 C-11.56864685 85.54556213 -11.57039917 84.63018677 -11.57220459 83.68707275 C-11.57662461 80.64552951 -11.57368459 77.60404389 -11.5703125 74.5625 C-11.5709855 72.4588215 -11.57195548 70.35514308 -11.57321167 68.25146484 C-11.57468885 63.83625551 -11.57253345 59.42106637 -11.56787109 55.00585938 C-11.5621738 49.33257439 -11.5654527 43.65933671 -11.57144356 37.98605347 C-11.57504864 33.64021444 -11.57391083 29.29438672 -11.57131577 24.94854736 C-11.57064635 22.8560587 -11.57147543 20.76356903 -11.57379532 18.67108154 C-11.57632098 15.75204734 -11.57248248 12.83309088 -11.56689453 9.9140625 C-11.56891876 9.0402594 -11.57094299 8.1664563 -11.57302856 7.26617432 C-11.54050234 -1.85627112 -8.05518381 0.00527517 0 0 Z " fill="#718495" transform="translate(218.4375,7.8125)"/>
<path d="M0 0 C1.08010849 0.00592163 1.08010849 0.00592163 2.18203735 0.01196289 C2.93022736 0.00914307 3.67841736 0.00632324 4.44927979 0.00341797 C6.88122385 -0.00085859 9.31264608 0.01172786 11.74453735 0.02758789 C12.56621399 0.0306897 13.38789063 0.0337915 14.23446655 0.0369873 C48.68707957 0.19080493 48.68707957 0.19080493 58.74453735 6.27758789 C59.23953735 7.26758789 59.23953735 7.26758789 59.74453735 8.27758789 C55.74453735 6.94425456 51.74453735 5.61092122 47.74453735 4.27758789 C30.8110986 2.73818437 13.74780501 3.27758789 -3.25546265 3.27758789 C-3.25546265 33.96758789 -3.25546265 64.65758789 -3.25546265 96.27758789 C3.01453735 96.27758789 9.28453735 96.27758789 15.74453735 96.27758789 C16.07453735 87.36758789 16.40453735 78.45758789 16.74453735 69.27758789 C18.90113892 69.14481445 21.05774048 69.01204102 23.2796936 68.87524414 C25.38805341 68.74350812 27.49635083 68.61081283 29.60464478 68.47802734 C31.06031156 68.38685655 32.51604035 68.29666975 33.97183228 68.20751953 C36.07462701 68.07857117 38.17716703 67.94598539 40.2796936 67.81274414 C41.54176636 67.73419189 42.80383911 67.65563965 44.10415649 67.57470703 C47.69134465 67.28192935 51.18919829 66.82440905 54.74453735 66.27758789 C54.74453735 65.61758789 54.74453735 64.95758789 54.74453735 64.27758789 C56.70050919 62.88046515 58.71044676 61.5583116 60.74453735 60.27758789 C61.8718756 59.53110716 62.99701053 58.78128447 64.11953735 58.02758789 C64.98578735 57.45008789 65.85203735 56.87258789 66.74453735 56.27758789 C64.30826914 62.21515959 59.29087116 65.41618386 53.74453735 68.27758789 C42.40558637 71.08946485 30.34889018 70.52189006 18.74453735 70.27758789 C18.7194812 71.09026123 18.69442505 71.90293457 18.66860962 72.74023438 C18.55304617 76.39869541 18.43014152 80.05687317 18.30703735 83.71508789 C18.26772095 84.99448242 18.22840454 86.27387695 18.18789673 87.59204102 C18.1460022 88.80698242 18.10410767 90.02192383 18.0609436 91.27368164 C18.02428589 92.39959717 17.98762817 93.5255127 17.94985962 94.68554688 C17.74453735 97.27758789 17.74453735 97.27758789 16.74453735 98.27758789 C13.29339032 98.52904913 9.82876533 98.46281208 6.36953735 98.46508789 C4.91160767 98.48345703 4.91160767 98.48345703 3.42422485 98.50219727 C2.4909436 98.50413086 1.55766235 98.50606445 0.59609985 98.50805664 C-0.69046509 98.51421997 -0.69046509 98.51421997 -2.00302124 98.52050781 C-4.25546265 98.27758789 -4.25546265 98.27758789 -7.25546265 96.27758789 C-7.55214511 93.2683991 -7.65427747 90.46487986 -7.6277771 87.45336914 C-7.63142776 86.53945404 -7.63507843 85.62553894 -7.63883972 84.68392944 C-7.64696877 81.65246193 -7.63331555 78.62152501 -7.6187439 75.59008789 C-7.61822557 73.49023438 -7.6187422 71.39038038 -7.62025452 69.29052734 C-7.62016469 64.88542455 -7.60971345 60.48050437 -7.59164429 56.07543945 C-7.56895681 50.41903514 -7.56841189 44.76289786 -7.57516193 39.10646057 C-7.57849789 34.76914075 -7.57187888 30.43188219 -7.5620327 26.09457397 C-7.55817396 24.00849732 -7.55703526 21.92241385 -7.55861855 19.83633423 C-7.55898797 16.92469212 -7.54640348 14.01339683 -7.53012085 11.10180664 C-7.53259827 10.23316986 -7.53507568 9.36453308 -7.53762817 8.46957397 C-7.47820666 1.83708613 -6.83859876 0.06397911 0 0 Z " fill="#586D81" transform="translate(122.25546264648438,6.722412109375)"/>
<path d="M0 0 C0.83528229 0.00202423 1.67056458 0.00404846 2.53115845 0.00613403 C3.82166611 0.00469894 3.82166611 0.00469894 5.13824463 0.00323486 C6.96924919 0.00255229 8.80025615 0.00441189 10.6312561 0.00857544 C13.39872904 0.01385779 16.16603479 0.00866721 18.9335022 0.00222778 C51.34250024 -0.01484775 51.34250024 -0.01484775 61.4100647 8.00222778 C68.71519384 15.95601533 69.49953447 23.12886239 69.25772095 33.57644653 C69.23741821 35.24610474 69.23741821 35.24610474 69.21670532 36.94949341 C69.18155092 39.67981865 69.13234201 42.40912397 69.07022095 45.13894653 C68.08022095 45.63394653 68.08022095 45.63394653 67.07022095 46.13894653 C67.09640503 45.52486938 67.12258911 44.91079224 67.14956665 44.27810669 C68.14287499 28.37741685 68.14287499 28.37741685 62.07022095 14.13894653 C61.57522095 13.12832153 61.08022095 12.11769653 60.57022095 11.07644653 C58.61469348 8.55055688 57.15465419 8.54479301 54.07022095 8.13894653 C53.57522095 7.14894653 53.57522095 7.14894653 53.07022095 6.13894653 C50.787822 5.48570767 50.787822 5.48570767 48.13272095 5.07644653 C43.24240638 4.22503925 43.24240638 4.22503925 41.07022095 3.13894653 C39.55944525 3.02089477 38.04383264 2.96198205 36.52871704 2.93362427 C35.57473022 2.91344238 34.62074341 2.8932605 33.6378479 2.87246704 C32.63326538 2.85599121 31.62868286 2.83951538 30.59365845 2.82254028 C29.67173706 2.80388916 28.74981567 2.78523804 27.79995728 2.76602173 C24.34847813 2.69760408 20.89683764 2.63753204 17.44522095 2.57644653 C9.73147095 2.43207153 2.01772095 2.28769653 -5.92977905 2.13894653 C-5.92977905 32.16894653 -5.92977905 62.19894653 -5.92977905 93.13894653 C0.01022095 93.13894653 5.95022095 93.13894653 12.07022095 93.13894653 C12.05861938 91.1292981 12.04701782 89.11964966 12.0350647 87.04910278 C12.02811355 85.10973229 12.02119699 83.1703615 12.01528931 81.23098755 C12.01025038 79.87974267 12.00341918 78.52850327 11.99478149 77.17727661 C11.98269675 75.23874219 11.97752267 73.30016853 11.9725647 71.36160278 C11.96732788 70.19379272 11.96209106 69.02598267 11.95669556 67.82278442 C12.07022095 65.13894653 12.07022095 65.13894653 13.07022095 64.13894653 C15.51852521 64.0505086 17.93842694 64.02365902 20.3866272 64.04129028 C21.11768173 64.04270523 21.84873627 64.04412018 22.60194397 64.045578 C24.94557727 64.05119245 27.28911634 64.06374732 29.63272095 64.07644653 C31.21800603 64.08145968 32.8032926 64.0860229 34.38858032 64.09011841 C38.28249705 64.10116657 42.176343 64.11844082 46.07022095 64.13894653 C46.40022095 63.14894653 46.73022095 62.15894653 47.07022095 61.13894653 C49.38022095 61.13894653 51.69022095 61.13894653 54.07022095 61.13894653 C53.08022095 61.63394653 53.08022095 61.63394653 52.07022095 62.13894653 C52.07022095 62.79894653 52.07022095 63.45894653 52.07022095 64.13894653 C39.8569674 67.96628459 26.75785342 67.28899738 14.07022095 67.13894653 C14.07807617 68.35795654 14.07807617 68.35795654 14.08609009 69.60159302 C14.10679089 73.25986975 14.11985898 76.91813421 14.13272095 80.57644653 C14.14109985 81.85584106 14.14947876 83.1352356 14.15811157 84.45339966 C14.16294556 86.27581177 14.16294556 86.27581177 14.1678772 88.13504028 C14.17573242 89.82391357 14.17573242 89.82391357 14.18374634 91.54690552 C14.07022095 94.13894653 14.07022095 94.13894653 13.07022095 95.13894653 C11.66673359 95.23754785 10.25841618 95.2697359 8.85147095 95.27175903 C7.57723267 95.27369263 7.57723267 95.27369263 6.2772522 95.27566528 C5.38393188 95.2717981 4.49061157 95.26793091 3.57022095 95.26394653 C2.67690063 95.26781372 1.78358032 95.27168091 0.8631897 95.27566528 C0.01369751 95.27437622 -0.83579468 95.27308716 -1.71102905 95.27175903 C-2.49542358 95.2706311 -3.27981812 95.26950317 -4.08798218 95.26834106 C-5.92977905 95.13894653 -5.92977905 95.13894653 -6.92977905 94.13894653 C-7.03034597 91.25288638 -7.0659328 88.39072079 -7.05917358 85.50418091 C-7.0609259 84.59855911 -7.06267822 83.69293732 -7.06448364 82.75987244 C-7.06890359 79.7507946 -7.06596367 76.74177502 -7.06259155 73.73269653 C-7.06326455 71.65143828 -7.06423454 69.5701801 -7.06549072 67.48892212 C-7.06696789 63.12079116 -7.06481254 58.7526806 -7.06015015 54.384552 C-7.05445285 48.771801 -7.05773176 43.15909781 -7.06372261 37.54634857 C-7.06732772 33.24683265 -7.06618987 28.94732815 -7.06359482 24.64781189 C-7.06292541 22.57765192 -7.06375445 20.50749093 -7.06607437 18.43733215 C-7.06860007 15.54943067 -7.06476147 12.66160776 -7.05917358 9.77371216 C-7.06119781 8.9092598 -7.06322205 8.04480743 -7.06530762 7.15415955 C-7.04038493 0.2386031 -6.9279513 0.0285371 0 0 Z " fill="#B0BAC3" transform="translate(124.92977905273438,8.861053466796875)"/>
<path d="M0 0 C3.79160297 -0.05786668 7.58309311 -0.09355054 11.375 -0.125 C12.45523438 -0.14175781 13.53546875 -0.15851562 14.6484375 -0.17578125 C15.6796875 -0.18222656 16.7109375 -0.18867187 17.7734375 -0.1953125 C19.20308838 -0.21102295 19.20308838 -0.21102295 20.66162109 -0.22705078 C23 0 23 0 25 2 C25.22705078 4.79736328 25.22705078 4.79736328 25.1953125 8.3203125 C25.18886719 9.57714844 25.18242187 10.83398438 25.17578125 12.12890625 C25.15902344 13.44761719 25.14226562 14.76632813 25.125 16.125 C25.11496983 17.46483721 25.10584404 18.80468152 25.09765625 20.14453125 C25.07402075 23.42986573 25.04107234 26.71484465 25 30 C25.78375 29.484375 26.5675 28.96875 27.375 28.4375 C28.24125 27.963125 29.1075 27.48875 30 27 C30.66 27.33 31.32 27.66 32 28 C30.8125 29.5 30.8125 29.5 29 31 C26.38671875 31.09375 26.38671875 31.09375 24 31 C23.97494385 30.18732666 23.9498877 29.37465332 23.92407227 28.53735352 C23.80850882 24.87889248 23.68560416 21.22071472 23.5625 17.5625 C23.52318359 16.28310547 23.48386719 15.00371094 23.44335938 13.68554688 C23.40146484 12.47060547 23.35957031 11.25566406 23.31640625 10.00390625 C23.27974854 8.87799072 23.24309082 7.7520752 23.20532227 6.59204102 C23.28781955 4.07146559 23.28781955 4.07146559 22 3 C15.07 3 8.14 3 1 3 C1 34.02 1 65.04 1 97 C7.93 97 14.86 97 22 97 C22.33 87.43 22.66 77.86 23 68 C29 68 29 68 31.59765625 70.01171875 C32.41105469 70.89472656 33.22445312 71.77773437 34.0625 72.6875 C34.87847656 73.55761719 35.69445312 74.42773438 36.53515625 75.32421875 C37.34855469 76.20722656 38.16195312 77.09023437 39 78 C40.65972713 79.67357743 42.32439698 81.34231786 44 83 C40.62537285 82.45276317 38.91765 81.9451 36 80 C35.54625 79.195625 35.0925 78.39125 34.625 77.5625 C32.74743154 74.60171896 31.07020351 73.61185684 28 72 C26.515 71.01 26.515 71.01 25 70 C25 79.57 25 89.14 25 99 C22.45724451 100.27137774 20.65191799 100.129425 17.80859375 100.1328125 C16.78185547 100.13410156 15.75511719 100.13539062 14.69726562 100.13671875 C13.62154297 100.13285156 12.54582031 100.12898438 11.4375 100.125 C10.35791016 100.12886719 9.27832031 100.13273437 8.16601562 100.13671875 C7.14056641 100.13542969 6.11511719 100.13414063 5.05859375 100.1328125 C4.11298584 100.13168457 3.16737793 100.13055664 2.19311523 100.12939453 C0 100 0 100 -1 99 C-1.10062934 95.99714161 -1.13614732 93.01724332 -1.12939453 90.01391602 C-1.13114685 89.07088623 -1.13289917 88.12785645 -1.13470459 87.15625 C-1.13912524 84.02211699 -1.13618413 80.88803989 -1.1328125 77.75390625 C-1.13348553 75.58536264 -1.13445556 73.41681911 -1.13571167 71.24827576 C-1.13718898 66.69602747 -1.13503324 62.14379875 -1.13037109 57.59155273 C-1.12467718 51.74573232 -1.12795047 45.89995785 -1.13394356 40.05413914 C-1.13755117 35.57357942 -1.1364096 31.09303066 -1.13381577 26.61247063 C-1.13314688 24.45661349 -1.1339736 22.30075536 -1.13629532 20.14489937 C-1.13882473 17.1350655 -1.13497696 14.12530676 -1.12939453 11.11547852 C-1.13141876 10.21721848 -1.13344299 9.31895844 -1.13552856 8.39347839 C-1.11426304 2.22852607 -1.11426304 2.22852607 0 0 Z " fill="#2D4961" transform="translate(207,6)"/>
<path d="M0 0 C0.91120605 0.01047363 1.82241211 0.02094727 2.76123047 0.03173828 C4.09371826 0.03923096 4.09371826 0.03923096 5.453125 0.046875 C7.14864502 0.07418701 7.14864502 0.07418701 8.87841797 0.10205078 C12.46716797 0.14330078 16.05591797 0.18455078 19.75341797 0.22705078 C19.75341797 13.09705078 19.75341797 25.96705078 19.75341797 39.22705078 C34.93341797 39.22705078 50.11341797 39.22705078 65.75341797 39.22705078 C65.67425993 27.14029168 65.67425993 27.14029168 65.57324219 15.05371094 C65.5674023 13.54118124 65.56230556 12.02864842 65.55810547 10.51611328 C65.54787354 9.72744873 65.5376416 8.93878418 65.52709961 8.1262207 C65.52646625 6.15838427 65.63035465 4.19103552 65.75341797 2.22705078 C67.75341797 0.22705078 67.75341797 0.22705078 69.72460938 0 C70.51013184 0.01047363 71.2956543 0.02094727 72.10498047 0.03173828 C72.95576172 0.03818359 73.80654297 0.04462891 74.68310547 0.05126953 C76.01728516 0.07640625 76.01728516 0.07640625 77.37841797 0.10205078 C78.72419922 0.11558594 78.72419922 0.11558594 80.09716797 0.12939453 C82.31618383 0.15300108 84.53466874 0.18592768 86.75341797 0.22705078 C86.75341797 0.55705078 86.75341797 0.88705078 86.75341797 1.22705078 C80.81341797 1.55705078 74.87341797 1.88705078 68.75341797 2.22705078 C68.42341797 15.09705078 68.09341797 27.96705078 67.75341797 41.22705078 C60.93574946 41.24995448 54.11821338 41.26988319 47.30053711 41.28198242 C44.97924346 41.28702412 42.657953 41.2938573 40.33666992 41.30249023 C37.00813002 41.31456303 33.67963195 41.32028057 30.35107422 41.32470703 C28.78390404 41.33244896 28.78390404 41.33244896 27.18507385 41.34034729 C26.22415329 41.34042282 25.26323273 41.34049835 24.27319336 41.34057617 C23.42269913 41.34279678 22.5722049 41.3450174 21.69593811 41.3473053 C19.75341797 41.22705078 19.75341797 41.22705078 18.75341797 40.22705078 C18.66476589 37.34271258 18.63820501 34.4824292 18.65576172 31.59814453 C18.65717667 30.73391373 18.65859161 29.86968292 18.66004944 28.97926331 C18.66566558 26.20765786 18.67822078 23.43613198 18.69091797 20.66455078 C18.69593089 18.79020299 18.70049416 16.91585393 18.70458984 15.04150391 C18.71564025 10.43665535 18.73291567 5.83186657 18.75341797 1.22705078 C15.44055277 1.36525347 12.12823808 1.51388856 8.81591797 1.66455078 C7.39762695 1.72352539 7.39762695 1.72352539 5.95068359 1.78369141 C5.0515625 1.82558594 4.15244141 1.86748047 3.22607422 1.91064453 C1.97709351 1.9656311 1.97709351 1.9656311 0.70288086 2.02172852 C-1.24997061 2.02072182 -1.24997061 2.02072182 -2.24658203 3.22705078 C-2.37183354 6.08717975 -2.43267924 8.92433232 -2.4519043 11.78588867 C-2.46180389 12.68336319 -2.47170349 13.58083771 -2.48190308 14.50550842 C-2.51361743 17.48688066 -2.53831459 20.46826887 -2.56298828 23.44970703 C-2.58354924 25.51094489 -2.60454547 27.57217844 -2.6259613 29.63340759 C-2.68127063 35.07004322 -2.73064069 40.50671745 -2.77880859 45.94342041 C-2.82895909 51.4865667 -2.88467875 57.02965664 -2.93994141 62.57275391 C-3.04763129 73.45747144 -3.14905205 84.34223781 -3.24658203 95.22705078 C-3.57658203 95.22705078 -3.90658203 95.22705078 -4.24658203 95.22705078 C-4.29284793 83.13591443 -4.32842192 71.04479902 -4.35020638 58.9535923 C-4.36065987 53.33963528 -4.37484757 47.72573866 -4.39746094 42.11181641 C-4.41913357 36.69778217 -4.43113885 31.28380616 -4.43633652 25.8697319 C-4.44004233 23.80038918 -4.44727847 21.73104977 -4.45804214 19.66173172 C-4.47248294 16.77148713 -4.47456309 13.88148558 -4.47363281 10.99121094 C-4.48082336 10.12878281 -4.48801392 9.26635468 -4.49542236 8.37779236 C-4.46767136 0.45152514 -4.46767136 0.45152514 0 0 Z " fill="#697D8F" transform="translate(12.24658203125,7.77294921875)"/>
<path d="M0 0 C1.18916016 -0.03287109 2.37832031 -0.06574219 3.60351562 -0.09960938 C13.38360002 -0.16001416 13.38360002 -0.16001416 16.4609375 2.8203125 C17.99224878 5.14153096 18.88262471 6.69362238 19.1875 9.4375 C19.8475 9.4375 20.5075 9.4375 21.1875 9.4375 C21.24199838 11.16630982 21.28051688 12.89562712 21.3125 14.625 C21.33570313 15.58792969 21.35890625 16.55085938 21.3828125 17.54296875 C21.09547624 21.80129215 20.05118747 24.52146783 17.125 27.625 C10.44484034 31.74680064 3.35488759 31.62449472 -4.25 31.6875 C-5.05590576 31.6968457 -5.86181152 31.70619141 -6.69213867 31.71582031 C-12.56654901 31.68345099 -12.56654901 31.68345099 -14.8125 29.4375 C-15.07128906 26.76367188 -15.07128906 26.76367188 -15.078125 23.40625 C-15.08070313 22.20355469 -15.08328125 21.00085938 -15.0859375 19.76171875 C-15.07820312 18.49972656 -15.07046875 17.23773438 -15.0625 15.9375 C-15.07023438 14.67550781 -15.07796875 13.41351563 -15.0859375 12.11328125 C-15.08335937 10.91058594 -15.08078125 9.70789063 -15.078125 8.46875 C-15.07586914 7.36080078 -15.07361328 6.25285156 -15.07128906 5.11132812 C-14.36853939 -2.14953456 -5.52536225 0.02669257 0 0 Z M-11.8125 3.4375 C-11.8125 11.3575 -11.8125 19.2775 -11.8125 27.4375 C-7.72846399 27.54528981 -3.6472632 27.62472647 0.4375 27.6875 C2.17580078 27.73777344 2.17580078 27.73777344 3.94921875 27.7890625 C5.06425781 27.80195312 6.17929688 27.81484375 7.328125 27.828125 C8.35454102 27.84907227 9.38095703 27.87001953 10.43847656 27.89160156 C13.937033 27.31368727 15.08393704 26.24996275 17.1875 23.4375 C17.77404234 21.47984593 17.77404234 21.47984593 17.68359375 19.43359375 C17.68423828 18.69302734 17.68488281 17.95246094 17.68554688 17.18945312 C17.65557617 16.04379883 17.65557617 16.04379883 17.625 14.875 C17.63208984 14.10736328 17.63917969 13.33972656 17.64648438 12.54882812 C17.65336025 8.41351284 17.65336025 8.41351284 16.03417969 4.71386719 C13.38521297 2.88298432 11.40404729 3.09774565 8.20703125 3.14453125 C6.46196289 3.1590332 6.46196289 3.1590332 4.68164062 3.17382812 C2.85922852 3.2115332 2.85922852 3.2115332 1 3.25 C-0.83981445 3.27030273 -0.83981445 3.27030273 -2.71679688 3.29101562 C-5.7488845 3.32640964 -8.78074691 3.38021705 -11.8125 3.4375 Z " fill="#6B7E8F" transform="translate(152.8125,26.5625)"/>
<path d="M0 0 C0.9583374 0.00523682 1.9166748 0.01047363 2.90405273 0.01586914 C4.45576172 0.02070312 4.45576172 0.02070312 6.03881836 0.02563477 C7.12743164 0.03401367 8.21604492 0.04239258 9.33764648 0.05102539 C10.97636719 0.05779297 10.97636719 0.05779297 12.64819336 0.06469727 C15.35723144 0.07652713 18.06616248 0.09300996 20.77514648 0.11352539 C20.77514648 0.44352539 20.77514648 0.77352539 20.77514648 1.11352539 C20.17452393 1.13858154 19.57390137 1.1636377 18.95507812 1.18945312 C16.24903211 1.30507819 13.54336365 1.42795475 10.83764648 1.55102539 C9.41935547 1.61 9.41935547 1.61 7.97241211 1.67016602 C7.07329102 1.71206055 6.17416992 1.75395508 5.24780273 1.79711914 C3.99882202 1.85210571 3.99882202 1.85210571 2.72460938 1.90820312 C0.77175791 1.90719642 0.77175791 1.90719642 -0.22485352 3.11352539 C-0.32542043 5.99958555 -0.36100727 8.86175114 -0.35424805 11.74829102 C-0.35600037 12.65391281 -0.35775269 13.55953461 -0.35955811 14.49259949 C-0.36397805 17.50167732 -0.36103813 20.51069691 -0.35766602 23.51977539 C-0.35833901 25.60103364 -0.359309 27.68229182 -0.36056519 29.7635498 C-0.36204235 34.13168077 -0.359887 38.49979132 -0.35522461 42.86791992 C-0.34952731 48.48067092 -0.35280622 54.09337411 -0.35879707 59.70612335 C-0.36240218 64.00563928 -0.36126433 68.30514377 -0.35866928 72.60466003 C-0.35799987 74.67482 -0.35882892 76.74498099 -0.36114883 78.81513977 C-0.36367453 81.70304125 -0.35983594 84.59086417 -0.35424805 87.47875977 C-0.35627228 88.34321213 -0.35829651 89.20766449 -0.36038208 90.09831238 C-0.72042367 93.91421692 -0.72042367 93.91421692 0.77514648 97.11352539 C2.33687393 97.20038142 3.90243993 97.22054759 5.46655273 97.21118164 C6.31677002 97.20868408 7.1669873 97.20618652 8.04296875 97.20361328 C9.1302124 97.19450928 10.21745605 97.18540527 11.33764648 97.17602539 C16.50420898 97.14508789 16.50420898 97.14508789 21.77514648 97.11352539 C22.10514648 85.56352539 22.43514648 74.01352539 22.77514648 62.11352539 C37.62514648 62.11352539 52.47514648 62.11352539 67.77514648 62.11352539 C67.77514648 62.44352539 67.77514648 62.77352539 67.77514648 63.11352539 C53.25514648 63.11352539 38.73514648 63.11352539 23.77514648 63.11352539 C23.81474796 74.58705951 23.81474796 74.58705951 23.86523438 86.06054688 C23.8681536 87.49357021 23.87070214 88.92659437 23.87280273 90.35961914 C23.8779187 91.11021606 23.88303467 91.86081299 23.88830566 92.63415527 C23.88861641 94.4610014 23.83745762 96.28774222 23.77514648 98.11352539 C21.24204927 100.64662261 14.2451974 99.29907711 10.83764648 99.30102539 C9.15251953 99.31939453 9.15251953 99.31939453 7.43334961 99.33813477 C6.36149414 99.34006836 5.28963867 99.34200195 4.18530273 99.34399414 C2.70235718 99.35015747 2.70235718 99.35015747 1.18945312 99.35644531 C-1.22485352 99.11352539 -1.22485352 99.11352539 -3.22485352 97.11352539 C-3.41853007 94.07541048 -3.48698477 91.12874633 -3.46777344 88.08984375 C-3.46967178 87.15481522 -3.47157013 86.21978668 -3.473526 85.25642395 C-3.47724096 82.1553213 -3.46652007 79.05445109 -3.45532227 75.95336914 C-3.45413085 73.80627978 -3.45367722 71.65918989 -3.45393372 69.51210022 C-3.45236765 65.00868475 -3.44406801 60.50534864 -3.43066406 56.00195312 C-3.41366386 50.2154702 -3.40984993 44.42907451 -3.41060925 38.64256954 C-3.41033796 34.20837056 -3.40486368 29.77419084 -3.3976078 25.33999825 C-3.39441505 23.20564482 -3.39245232 21.0712892 -3.3917141 18.93693352 C-3.38955751 15.96052164 -3.38082843 12.98420424 -3.37011719 10.0078125 C-3.37057037 9.11687897 -3.37102356 8.22594543 -3.37149048 7.30801392 C-3.33373132 0.170107 -3.33373132 0.170107 0 0 Z " fill="#1E3B56" transform="translate(9.224853515625,6.886474609375)"/>
<path d="M0 0 C1.26166992 0.00580078 1.26166992 0.00580078 2.54882812 0.01171875 C3.38607422 0.00785156 4.22332031 0.00398437 5.0859375 0 C5.88708984 0.00128906 6.68824219 0.00257812 7.51367188 0.00390625 C8.25093506 0.00503418 8.98819824 0.00616211 9.74780273 0.00732422 C11.61132812 0.13671875 11.61132812 0.13671875 13.61132812 1.13671875 C13.61132812 11.03671875 13.61132812 20.93671875 13.61132812 31.13671875 C15.59132812 31.13671875 17.57132813 31.13671875 19.61132812 31.13671875 C18.42382812 32.63671875 18.42382812 32.63671875 16.61132812 34.13671875 C13.92382812 34.32421875 13.92382812 34.32421875 11.61132812 34.13671875 C10.6675973 30.2315161 10.56147964 26.74983311 10.73242188 22.7421875 C10.80493164 20.93911133 10.80493164 20.93911133 10.87890625 19.09960938 C10.93498047 17.85373047 10.99105469 16.60785156 11.04882812 15.32421875 C11.10103516 14.05900391 11.15324219 12.79378906 11.20703125 11.49023438 C11.33646035 8.37216974 11.47318913 5.25440965 11.61132812 2.13671875 C5.67132813 2.13671875 -0.26867187 2.13671875 -6.38867188 2.13671875 C-6.38867188 32.49671875 -6.38867188 62.85671875 -6.38867188 94.13671875 C-0.11867187 94.13671875 6.15132812 94.13671875 12.61132812 94.13671875 C12.61132812 83.90671875 12.61132812 73.67671875 12.61132812 63.13671875 C14.26132813 63.13671875 15.91132813 63.13671875 17.61132812 63.13671875 C18.10632813 64.12671875 18.10632813 64.12671875 18.61132812 65.13671875 C17.29132813 65.13671875 15.97132813 65.13671875 14.61132812 65.13671875 C14.61918335 66.44660767 14.61918335 66.44660767 14.62719727 67.78295898 C14.64420563 71.01261148 14.65676182 74.2422412 14.66625977 77.47192383 C14.67129892 78.87167103 14.67813029 80.27141295 14.68676758 81.67114258 C14.69885132 83.67917652 14.70402619 85.68724832 14.70898438 87.6953125 C14.7168396 89.50986938 14.7168396 89.50986938 14.72485352 91.36108398 C14.61132812 94.13671875 14.61132812 94.13671875 13.61132812 95.13671875 C12.04960068 95.22357478 10.48403468 95.24374094 8.91992188 95.234375 C7.97568359 95.23115234 7.03144531 95.22792969 6.05859375 95.22460938 C5.06537109 95.21623047 4.07214844 95.20785156 3.04882812 95.19921875 C2.05173828 95.19470703 1.05464844 95.19019531 0.02734375 95.18554688 C-2.44472036 95.17371882 -4.91666705 95.15723724 -7.38867188 95.13671875 C-7.41179354 82.89791546 -7.42958606 70.65911732 -7.44048405 58.42029667 C-7.44571326 52.73795363 -7.45281161 47.05562548 -7.46411133 41.37329102 C-7.47493884 35.89442739 -7.48094842 30.41557813 -7.48354912 24.93670464 C-7.48540361 22.84142264 -7.48902469 20.74614147 -7.49440193 18.65086555 C-7.50161056 15.72694291 -7.50266289 12.80308042 -7.50219727 9.87915039 C-7.50579254 9.00377625 -7.50938782 8.1284021 -7.51309204 7.22650146 C-7.50055854 0.00266135 -7.23149616 0.0116543 0 0 Z " fill="#BDC6CD" transform="translate(215.388671875,8.86328125)"/>
<path d="M0 0 C0.82741699 0.01047363 1.65483398 0.02094727 2.50732422 0.03173828 C3.71799561 0.03923096 3.71799561 0.03923096 4.953125 0.046875 C6.49202393 0.07418701 6.49202393 0.07418701 8.06201172 0.10205078 C12.95013672 0.16392578 12.95013672 0.16392578 17.93701172 0.22705078 C17.93701172 12.76705078 17.93701172 25.30705078 17.93701172 38.22705078 C17.60701172 38.22705078 17.27701172 38.22705078 16.93701172 38.22705078 C16.60701172 26.34705078 16.27701172 14.46705078 15.93701172 2.22705078 C10.32701172 2.22705078 4.71701172 2.22705078 -1.06298828 2.22705078 C-1.06298828 32.25705078 -1.06298828 62.28705078 -1.06298828 93.22705078 C4.87701172 93.55705078 10.81701172 93.88705078 16.93701172 94.22705078 C16.93701172 94.55705078 16.93701172 94.88705078 16.93701172 95.22705078 C10.00701172 95.22705078 3.07701172 95.22705078 -4.06298828 95.22705078 C-4.1081071 83.1359011 -4.14482816 71.04480699 -4.16661263 58.9535923 C-4.17706612 53.33963528 -4.19125382 47.72573866 -4.21386719 42.11181641 C-4.23553982 36.69778217 -4.2475451 31.28380616 -4.25274277 25.8697319 C-4.25644858 23.80038918 -4.26368472 21.73104977 -4.27444839 19.66173172 C-4.28888919 16.77148713 -4.29096934 13.88148558 -4.29003906 10.99121094 C-4.29722961 10.12878281 -4.30442017 9.26635468 -4.31182861 8.37779236 C-4.28414757 0.47150973 -4.28414757 0.47150973 0 0 Z " fill="#A2AEB9" transform="translate(13.06298828125,8.77294921875)"/>
<path d="M0 0 C1.40423928 0.03015685 2.80854141 0.05752254 4.21289062 0.08203125 C7.62272153 0.15233704 11.0292811 0.25071712 14.4375 0.375 C14.9325 2.355 14.9325 2.355 15.4375 4.375 C10.94996692 8.42972532 6.47525239 12.0164984 1.4375 15.375 C-0.25012851 17.0204378 -1.9165349 18.68788577 -3.5625 20.375 C-9.06796448 25.375 -9.06796448 25.375 -11.5625 25.375 C-11.789375 25.99375 -12.01625 26.6125 -12.25 27.25 C-13.94179835 29.98910209 -15.55494161 30.42524472 -18.5625 31.375 C-15.06694193 26.84022196 -11.65165421 23.58779589 -6.9375 20.3125 C-2.68096502 17.34322358 -0.39904801 14.72437362 2.4375 10.375 C4.7268277 8.66922642 7.07372164 7.15622021 9.51171875 5.671875 C11.57356587 4.51293663 11.57356587 4.51293663 12.4375 2.375 C3.1975 2.375 -6.0425 2.375 -15.5625 2.375 C-15.8925 3.365 -16.2225 4.355 -16.5625 5.375 C-18.27734375 6.8828125 -18.27734375 6.8828125 -20.5 8.5 C-25.80882001 12.48588254 -30.68173623 16.8814367 -35.5625 21.375 C-36.2225 21.045 -36.8825 20.715 -37.5625 20.375 C-36.79164063 19.69953125 -36.02078125 19.0240625 -35.2265625 18.328125 C-34.21325426 17.42740656 -33.20024929 16.52634687 -32.1875 15.625 C-31.67960938 15.1815625 -31.17171875 14.738125 -30.6484375 14.28125 C-27.71345615 11.6836396 -27.71345615 11.6836396 -25.62817383 8.41552734 C-20.57377133 -1.26252444 -9.36518739 -0.35189999 0 0 Z " fill="#8797A5" transform="translate(283.5625,7.625)"/>
<path d="M0 0 C0.91644287 0.00523682 1.83288574 0.01047363 2.77709961 0.01586914 C4.26113281 0.02070312 4.26113281 0.02070312 5.77514648 0.02563477 C6.81606445 0.03401367 7.85698242 0.04239258 8.92944336 0.05102539 C10.49662109 0.05779297 10.49662109 0.05779297 12.09545898 0.06469727 C14.68600996 0.07652627 17.27644895 0.0930085 19.86694336 0.11352539 C19.86694336 0.44352539 19.86694336 0.77352539 19.86694336 1.11352539 C19.01144897 1.15110962 19.01144897 1.15110962 18.13867188 1.18945312 C15.56868179 1.30509088 12.99908808 1.42796163 10.42944336 1.55102539 C9.53161133 1.5903418 8.6337793 1.6296582 7.70874023 1.67016602 C6.85473633 1.71206055 6.00073242 1.75395508 5.12084961 1.79711914 C3.93471069 1.85210571 3.93471069 1.85210571 2.72460938 1.90820312 C0.85292895 1.91915796 0.85292895 1.91915796 -0.13305664 3.11352539 C-0.29314828 5.85031187 -0.39260085 8.56540457 -0.44946289 11.30493164 C-0.46811401 12.03127808 -0.48676514 12.75762451 -0.50598145 13.50598145 C-0.57447674 16.2292012 -0.63449905 18.95262873 -0.69555664 21.67602539 C-0.83993164 27.76040039 -0.98430664 33.84477539 -1.13305664 40.11352539 C-16.31305664 40.11352539 -31.49305664 40.11352539 -47.13305664 40.11352539 C-47.13305664 27.24352539 -47.13305664 14.37352539 -47.13305664 1.11352539 C-46.80305664 1.11352539 -46.47305664 1.11352539 -46.13305664 1.11352539 C-46.13305664 13.65352539 -46.13305664 26.19352539 -46.13305664 39.11352539 C-31.94305664 39.11352539 -17.75305664 39.11352539 -3.13305664 39.11352539 C-3.1726601 26.65268844 -3.1726601 26.65268844 -3.22314453 14.19189453 C-3.22606369 12.63582426 -3.22861225 11.07975323 -3.23071289 9.52368164 C-3.23582886 8.70830933 -3.24094482 7.89293701 -3.24621582 7.05285645 C-3.24652604 5.07272016 -3.1954376 3.09267885 -3.13305664 1.11352539 C-2.13305664 0.11352539 -2.13305664 0.11352539 0 0 Z " fill="#1E3C56" transform="translate(79.133056640625,6.886474609375)"/>
<path d="M0 0 C2.31 0 4.62 0 7 0 C6.34 0.33 5.68 0.66 5 1 C5 1.66 5 2.32 5 3 C-7.22601043 6.83133575 -20.30802282 6.11231838 -33 6 C-33 14.91 -33 23.82 -33 33 C-39.27 33 -45.54 33 -52 33 C-52 32.67 -52 32.34 -52 32 C-46.39 32 -40.78 32 -35 32 C-35.01160156 29.99035156 -35.02320313 27.98070312 -35.03515625 25.91015625 C-35.0421074 23.97078576 -35.04902396 22.03141497 -35.05493164 20.09204102 C-35.05997057 18.74079614 -35.06680177 17.38955674 -35.07543945 16.03833008 C-35.08752419 14.09979566 -35.09269828 12.161222 -35.09765625 10.22265625 C-35.10289307 9.05484619 -35.10812988 7.88703613 -35.11352539 6.68383789 C-35 4 -35 4 -34 3 C-31.55169574 2.91156207 -29.13179401 2.88471248 -26.68359375 2.90234375 C-25.95253922 2.9037587 -25.22148468 2.90517365 -24.46827698 2.90663147 C-22.12464368 2.91224592 -19.78110461 2.92480078 -17.4375 2.9375 C-15.85221492 2.94251314 -14.26692834 2.94707637 -12.68164062 2.95117188 C-8.7877239 2.96222003 -4.89387795 2.97949428 -1 3 C-0.67 2.01 -0.34 1.02 0 0 Z " fill="#C1C8D0" transform="translate(172,70)"/>
<path d="M0 0 C3.42118944 1.52140452 6.01466733 3.53360339 8.875 5.9375 C12.12329878 8.6429564 15.38108499 11.31400017 18.7265625 13.8984375 C19.35320801 14.38320557 19.97985352 14.86797363 20.62548828 15.36743164 C21.85253011 16.31336295 23.08257085 17.25541989 24.31591797 18.19311523 C27.33707388 20.52928661 30.05136574 22.68036235 32 26 C32 26.99 32 27.98 32 29 C27.69504985 29.09935088 23.39071817 29.17169268 19.08496094 29.21972656 C17.62227748 29.23976332 16.15967334 29.26700104 14.69726562 29.30175781 C12.5870399 29.35063225 10.47787864 29.37304659 8.3671875 29.390625 C7.09987793 29.41157227 5.83256836 29.43251953 4.52685547 29.45410156 C0.39039125 28.9215096 -1.69643477 27.4687966 -5 25 C-5.7425 24.855625 -6.485 24.71125 -7.25 24.5625 C-7.8275 24.376875 -8.405 24.19125 -9 24 C-9.68132451 22.33927151 -10.34742127 20.672233 -11 19 C-13.01669827 17.86649466 -13.01669827 17.86649466 -15 17 C-15.33 16.01 -15.66 15.02 -16 14 C-11.07524754 15.40707213 -9.20535409 18.1535751 -6 22 C-3.44816596 23.20450304 -3.44816596 23.20450304 -1 24 C-0.58838623 24.50120361 -0.17677246 25.00240723 0.24731445 25.51879883 C2.85905544 27.725991 5.0424373 27.43534926 8.41796875 27.51171875 C9.67158203 27.54716797 10.92519531 27.58261719 12.21679688 27.61914062 C13.52712891 27.64169922 14.83746094 27.66425781 16.1875 27.6875 C17.52282013 27.72067666 18.85810832 27.75516666 20.19335938 27.79101562 C23.46215504 27.87362057 26.73067812 27.94273229 30 28 C25.49291684 23.27539352 20.50939352 19.36090657 15.3515625 15.37304688 C12.06389294 12.79222627 9.40611631 10.45634297 7 7 C6.154375 6.505 5.30875 6.01 4.4375 5.5 C1.80919311 3.88258038 1.07499343 2.83407359 0 0 Z " fill="#A3AFBA" transform="translate(267,75)"/>
<path d="M0 0 C0.66 0.33 1.32 0.66 2 1 C1.67 1.33 1.34 1.66 1 2 C0.87470812 4.92117732 0.81389328 7.81985241 0.79467773 10.74243164 C0.78477814 11.6594133 0.77487854 12.57639496 0.76467896 13.52116394 C0.73296351 16.56746799 0.70826701 19.61378767 0.68359375 22.66015625 C0.66303288 24.76623451 0.64203666 26.87230856 0.62062073 28.9783783 C0.56531043 34.53338218 0.5159408 40.08842385 0.46777344 45.64349365 C0.41762365 51.30728536 0.36190362 56.97102191 0.30664062 62.63476562 C0.19894955 73.75646334 0.09752906 84.87820886 0 96 C2.94131891 96.98043964 4.82501665 97.11621202 7.88671875 97.09765625 C9.154552 97.09390991 9.154552 97.09390991 10.44799805 97.09008789 C11.51703369 97.08098389 12.58606934 97.07187988 13.6875 97.0625 C17.090625 97.041875 20.49375 97.02125 24 97 C24.33 88.75 24.66 80.5 25 72 C25.33 72 25.66 72 26 72 C26.02886537 76.31248609 26.04675255 80.62494762 26.0625 84.9375 C26.07087891 86.16919922 26.07925781 87.40089844 26.08789062 88.66992188 C26.09272461 90.4246582 26.09272461 90.4246582 26.09765625 92.21484375 C26.10551147 93.84087524 26.10551147 93.84087524 26.11352539 95.49975586 C26 98 26 98 25 99 C21.02724185 99.25256877 17.04233825 99.18522451 13.0625 99.1875 C11.37737305 99.20586914 11.37737305 99.20586914 9.65820312 99.22460938 C8.58634766 99.22654297 7.51449219 99.22847656 6.41015625 99.23046875 C4.92721069 99.23663208 4.92721069 99.23663208 3.41430664 99.24291992 C1 99 1 99 -1 97 C-1.19367655 93.96188509 -1.26213126 91.01522094 -1.24291992 87.97631836 C-1.24481827 87.04128983 -1.24671661 86.10626129 -1.24867249 85.14289856 C-1.25238745 82.04179591 -1.24166655 78.9409257 -1.23046875 75.83984375 C-1.22927734 73.69275439 -1.22882371 71.5456645 -1.2290802 69.39857483 C-1.22751413 64.89515936 -1.21921449 60.39182324 -1.20581055 55.88842773 C-1.18881034 50.10194481 -1.18499642 44.31554912 -1.18575573 38.52904415 C-1.18548445 34.09484517 -1.18001017 29.66066545 -1.17275429 25.22647285 C-1.16956153 23.09211943 -1.16759881 20.95776381 -1.16686058 18.82340813 C-1.164704 15.84699625 -1.15597491 12.87067885 -1.14526367 9.89428711 C-1.14571686 9.00335358 -1.14617004 8.11242004 -1.14663696 7.19448853 C-1.114474 1.114474 -1.114474 1.114474 0 0 Z " fill="#12314D" transform="translate(115,7)"/>
<path d="M0 0 C6.86421518 -0.12802255 13.72811644 -0.21485729 20.59326172 -0.2746582 C22.92280583 -0.29961875 25.25227312 -0.33359955 27.58154297 -0.37719727 C57.0079656 -0.91371505 57.0079656 -0.91371505 66.35400391 6.9909668 C72.82246535 13.63772005 74.34594344 20.12403564 74.26367188 29.14648438 C74.23853516 30.23251953 74.21339844 31.31855469 74.1875 32.4375 C74.16719727 34.1071582 74.16719727 34.1071582 74.14648438 35.81054688 C74.11132997 38.54087212 74.06212106 41.27017744 74 44 C73.01 44.495 73.01 44.495 72 45 C72.02618408 44.38592285 72.05236816 43.7718457 72.0793457 43.13916016 C73.07265404 27.23847032 73.07265404 27.23847032 67 13 C66.505 11.989375 66.01 10.97875 65.5 9.9375 C63.54447253 7.41161035 62.08443324 7.40584648 59 7 C58.505 6.01 58.505 6.01 58 5 C55.71760106 4.34676114 55.71760106 4.34676114 53.0625 3.9375 C48.17218543 3.08609272 48.17218543 3.08609272 46 2 C44.51987176 1.88213309 43.03483534 1.82307062 41.55029297 1.79467773 C40.62948944 1.77473251 39.70868591 1.75478729 38.75997925 1.73423767 C37.76410797 1.71752518 36.76823669 1.70081268 35.7421875 1.68359375 C34.72399933 1.66281265 33.70581116 1.64203156 32.6567688 1.62062073 C29.39624945 1.55510534 26.13564794 1.49623098 22.875 1.4375 C20.66796017 1.39431668 18.46092872 1.35070245 16.25390625 1.30664062 C10.83602499 1.19942195 5.41806154 1.09765926 0 1 C0 0.67 0 0.34 0 0 Z " fill="#E7EAEC" transform="translate(120,10)"/>
<path d="M0 0 C0.33 0 0.66 0 1 0 C1 13.2 1 26.4 1 40 C-6.24491214 40.02290278 -13.48969969 40.04283177 -20.73461914 40.05493164 C-23.20142033 40.05997356 -25.66821852 40.06680691 -28.13500977 40.07543945 C-31.67204529 40.08751125 -35.20904145 40.09322956 -38.74609375 40.09765625 C-39.85649521 40.10281754 -40.96689667 40.10797882 -42.11094666 40.11329651 C-43.64242088 40.11340981 -43.64242088 40.11340981 -45.20483398 40.11352539 C-46.56051735 40.11685631 -46.56051735 40.11685631 -47.94358826 40.12025452 C-50 40 -50 40 -51 39 C-51.08861992 36.1883662 -51.11522355 33.40141745 -51.09765625 30.58984375 C-51.0962413 29.74780899 -51.09482635 28.90577423 -51.09336853 28.03822327 C-51.08775263 25.33794665 -51.07519748 22.63775172 -51.0625 19.9375 C-51.05748705 18.11132932 -51.05292379 16.28515734 -51.04882812 14.45898438 C-51.03777804 9.97262458 -51.02050279 5.48632616 -51 1 C-50.67 1 -50.34 1 -50 1 C-49.97494385 2.08531006 -49.9498877 3.17062012 -49.92407227 4.28881836 C-49.83016245 8.301316 -49.72990233 12.31363382 -49.62768555 16.32592773 C-49.58427427 18.06514288 -49.54260388 19.80440235 -49.50268555 21.54370117 C-49.44513232 24.03838488 -49.3813958 26.5328441 -49.31640625 29.02734375 C-49.29969376 29.80963852 -49.28298126 30.59193329 -49.26576233 31.39793396 C-49.49351269 34.99871781 -49.49351269 34.99871781 -48 38 C-46.49683231 38.1224331 -44.98811833 38.17776285 -43.48022461 38.20532227 C-42.51930405 38.22526749 -41.55838348 38.24521271 -40.56834412 38.26576233 C-39.523564 38.28247482 -38.47878387 38.29918732 -37.40234375 38.31640625 C-36.33834854 38.33718735 -35.27435333 38.35796844 -34.17811584 38.37937927 C-30.7646456 38.44499254 -27.35109571 38.50381423 -23.9375 38.5625 C-21.62954891 38.60567403 -19.321606 38.64928794 -17.01367188 38.69335938 C-11.3425285 38.8015172 -5.67132851 38.90050301 0 39 C0 26.13 0 13.26 0 0 Z " fill="#D4DADF" transform="translate(80,10)"/>
<path d="M0 0 C2.95839355 -0.02689449 5.91654427 -0.04678741 8.875 -0.0625 C9.71675781 -0.07087891 10.55851563 -0.07925781 11.42578125 -0.08789062 C12.23144531 -0.09111328 13.03710938 -0.09433594 13.8671875 -0.09765625 C14.98262939 -0.10551147 14.98262939 -0.10551147 16.12060547 -0.11352539 C18 0 18 0 20 1 C20 10.9 20 20.8 20 31 C21.98 31 23.96 31 26 31 C24.8125 32.5 24.8125 32.5 23 34 C20.3125 34.1875 20.3125 34.1875 18 34 C17.05626917 30.09479735 16.95015152 26.61311436 17.12109375 22.60546875 C17.19360352 20.80239258 17.19360352 20.80239258 17.26757812 18.96289062 C17.32365234 17.71701172 17.37972656 16.47113281 17.4375 15.1875 C17.48970703 13.92228516 17.54191406 12.65707031 17.59570312 11.35351562 C17.72513222 8.23545099 17.861861 5.1176909 18 2 C12.06 2 6.12 2 0 2 C0 1.34 0 0.68 0 0 Z " fill="#C6CDD4" transform="translate(209,9)"/>
<path d="M0 0 C0.33 0 0.66 0 1 0 C1 8.91 1 17.82 1 27 C6.82040282 25.7938549 6.82040282 25.7938549 8.1171875 23.08203125 C8.40851563 22.39496094 8.69984375 21.70789063 9 21 C10.8828125 19.32421875 10.8828125 19.32421875 13.125 17.6875 C17.61280354 14.32710253 21.82694231 10.74096998 26 7 C26.66 7.33 27.32 7.66 28 8 C27.19175781 8.73605469 26.38351562 9.47210938 25.55078125 10.23046875 C24.47129779 11.21608409 23.39187388 12.20176465 22.3125 13.1875 C21.51682617 13.91163086 21.51682617 13.91163086 20.70507812 14.65039062 C16.7950437 18.22459387 12.9198975 21.82537408 9.41015625 25.80078125 C8.96542969 26.29964844 8.52070313 26.79851563 8.0625 27.3125 C7.62035156 27.82425781 7.17820313 28.33601563 6.72265625 28.86328125 C4.20527555 30.52441001 1.95066645 30.07247775 -1 30 C-1.02465746 25.8882744 -1.04283959 21.77657722 -1.05493164 17.66479492 C-1.0599708 16.26504772 -1.06680216 14.8653058 -1.07543945 13.46557617 C-1.0875232 11.45754223 -1.09269807 9.44947043 -1.09765625 7.44140625 C-1.10289307 6.23170166 -1.10812988 5.02199707 -1.11352539 3.77563477 C-1 1 -1 1 0 0 Z " fill="#5E7386" transform="translate(230,10)"/>
<path d="M0 0 C10.23 0 20.46 0 31 0 C30.67 0.99 30.34 1.98 30 3 C19.77 3 9.54 3 -1 3 C-0.67 2.01 -0.34 1.02 0 0 Z " fill="#001535" transform="translate(269,106)"/>
<path d="M0 0 C1.40423928 0.03015685 2.80854141 0.05752254 4.21289062 0.08203125 C7.62272153 0.15233704 11.0292811 0.25071712 14.4375 0.375 C14.9325 2.355 14.9325 2.355 15.4375 4.375 C14.7775 4.375 14.1175 4.375 13.4375 4.375 C13.4375 3.385 13.4375 2.395 13.4375 1.375 C8.87389449 1.39781132 4.31279047 1.47514171 -0.25 1.5625 C-1.54357422 1.56830078 -2.83714844 1.57410156 -4.16992188 1.58007812 C-5.41708984 1.60908203 -6.66425781 1.63808594 -7.94921875 1.66796875 C-9.09608154 1.6836792 -10.24294434 1.69938965 -11.42456055 1.71557617 C-15.4810426 2.56802759 -16.87996873 4.28866519 -19.5625 7.375 C-21.87265742 9.48909821 -24.24837795 11.52359519 -26.625 13.5625 C-27.54249023 14.36204102 -27.54249023 14.36204102 -28.47851562 15.17773438 C-29.07470703 15.69013672 -29.67089844 16.20253906 -30.28515625 16.73046875 C-31.08578491 17.42112427 -31.08578491 17.42112427 -31.90258789 18.12573242 C-33.69904892 19.47776817 -35.52731453 20.42867889 -37.5625 21.375 C-34.82112749 18.02129342 -32.21416839 14.89337258 -28.8125 12.1875 C-26.49498741 10.58811427 -26.49498741 10.58811427 -25.65014648 8.46337891 C-20.59089505 -1.25083809 -9.40149432 -0.35326423 0 0 Z " fill="#7C8D9C" transform="translate(283.5625,7.625)"/>
<path d="M0 0 C1.65 0 3.3 0 5 0 C5.33 0.66 5.66 1.32 6 2 C4.68 2 3.36 2 2 2 C2.00785522 3.30988892 2.00785522 3.30988892 2.01586914 4.64624023 C2.03287751 7.87589273 2.04543369 11.10552245 2.05493164 14.33520508 C2.0599708 15.73495228 2.06680216 17.1346942 2.07543945 18.53442383 C2.0875232 20.54245777 2.09269807 22.55052957 2.09765625 24.55859375 C2.10551147 26.37315063 2.10551147 26.37315063 2.11352539 28.22436523 C2 31 2 31 1 32 C-0.56172745 32.08685603 -2.12729344 32.10702219 -3.69140625 32.09765625 C-4.63564453 32.09443359 -5.57988281 32.09121094 -6.55273438 32.08789062 C-7.54595703 32.07951172 -8.53917969 32.07113281 -9.5625 32.0625 C-10.55958984 32.05798828 -11.55667969 32.05347656 -12.58398438 32.04882812 C-15.05604849 32.03700007 -17.52799518 32.02051849 -20 32 C-20 31.67 -20 31.34 -20 31 C-13.4 31 -6.8 31 0 31 C0 20.77 0 10.54 0 0 Z " fill="#96A3B0" transform="translate(228,72)"/>
<path d="M0 0 C3.79160297 -0.05786668 7.58309311 -0.09355054 11.375 -0.125 C12.45523438 -0.14175781 13.53546875 -0.15851562 14.6484375 -0.17578125 C15.6796875 -0.18222656 16.7109375 -0.18867187 17.7734375 -0.1953125 C19.20308838 -0.21102295 19.20308838 -0.21102295 20.66162109 -0.22705078 C23 0 23 0 25 2 C25.22705078 4.79736328 25.22705078 4.79736328 25.1953125 8.3203125 C25.18886719 9.57714844 25.18242187 10.83398438 25.17578125 12.12890625 C25.15902344 13.44761719 25.14226562 14.76632813 25.125 16.125 C25.11496983 17.46483721 25.10584404 18.80468152 25.09765625 20.14453125 C25.07402075 23.42986573 25.04107234 26.71484465 25 30 C25.78375 29.484375 26.5675 28.96875 27.375 28.4375 C28.24125 27.963125 29.1075 27.48875 30 27 C30.66 27.33 31.32 27.66 32 28 C30.8125 29.5 30.8125 29.5 29 31 C26.38671875 31.09375 26.38671875 31.09375 24 31 C23.97494385 30.18732666 23.9498877 29.37465332 23.92407227 28.53735352 C23.80850882 24.87889248 23.68560416 21.22071472 23.5625 17.5625 C23.52318359 16.28310547 23.48386719 15.00371094 23.44335938 13.68554688 C23.40146484 12.47060547 23.35957031 11.25566406 23.31640625 10.00390625 C23.27974854 8.87799072 23.24309082 7.7520752 23.20532227 6.59204102 C23.28781955 4.07146559 23.28781955 4.07146559 22 3 C20.36743242 2.84285346 18.72864662 2.74914586 17.08984375 2.68359375 C16.10048828 2.64169922 15.11113281 2.59980469 14.09179688 2.55664062 C13.05087891 2.51732422 12.00996094 2.47800781 10.9375 2.4375 C9.37032227 2.37272461 9.37032227 2.37272461 7.77148438 2.30664062 C5.18113116 2.20018775 2.59067814 2.0981724 0 2 C0 1.34 0 0.68 0 0 Z " fill="#203E58" transform="translate(207,6)"/>
<path d="M0 0 C3.7691183 2.51274553 4.34719902 4.86799756 6 9 C6.33 9.33 6.66 9.66 7 10 C7.08737645 11.85369611 7.10698153 13.71067541 7.09765625 15.56640625 C7.09282227 17.2534668 7.09282227 17.2534668 7.08789062 18.97460938 C7.07951172 20.15861328 7.07113281 21.34261719 7.0625 22.5625 C7.05798828 23.75037109 7.05347656 24.93824219 7.04882812 26.16210938 C7.03699675 29.10812226 7.02051287 32.05403681 7 35 C5.515 35.495 5.515 35.495 4 36 C3.896875 36.78375 3.79375 37.5675 3.6875 38.375 C3 41 3 41 0 43 C0.28151087 41.68528432 0.57553339 40.37324233 0.875 39.0625 C1.03742188 38.33160156 1.19984375 37.60070313 1.3671875 36.84765625 C2 35 2 35 4 34 C4.11719175 30.16692831 4.18758077 26.33432392 4.25 22.5 C4.28351563 21.42234375 4.31703125 20.3446875 4.3515625 19.234375 C4.43671245 12.25207911 3.56397478 8.00543782 0 2 C0 1.34 0 0.68 0 0 Z " fill="#496176" transform="translate(189,20)"/>
<path d="M0 0 C1.02802734 -0.01224609 2.05605469 -0.02449219 3.11523438 -0.03710938 C4.58766602 -0.04000977 4.58766602 -0.04000977 6.08984375 -0.04296875 C6.99468506 -0.04707764 7.89952637 -0.05118652 8.83178711 -0.05541992 C11.0625 0.1875 11.0625 0.1875 13.0625 2.1875 C12.4012915 2.21255615 11.74008301 2.2376123 11.05883789 2.26342773 C8.08067695 2.37903102 5.1028608 2.50191754 2.125 2.625 C0.56362305 2.68397461 0.56362305 2.68397461 -1.02929688 2.74414062 C-2.51333008 2.80698242 -2.51333008 2.80698242 -4.02734375 2.87109375 C-5.40200806 2.92608032 -5.40200806 2.92608032 -6.80444336 2.98217773 C-8.9195728 2.95753864 -8.9195728 2.95753864 -9.9375 4.1875 C-10.03735642 6.16333828 -10.06830794 8.14273478 -10.0703125 10.12109375 C-10.07160156 11.32701172 -10.07289063 12.53292969 -10.07421875 13.77539062 C-10.07035156 15.04576172 -10.06648437 16.31613281 -10.0625 17.625 C-10.06636719 18.89150391 -10.07023438 20.15800781 -10.07421875 21.46289062 C-10.07292969 22.67009766 -10.07164062 23.87730469 -10.0703125 25.12109375 C-10.06918457 26.23540771 -10.06805664 27.34972168 -10.06689453 28.49780273 C-10.12030216 31.15832739 -10.12030216 31.15832739 -8.9375 33.1875 C-9.9275 32.8575 -10.9175 32.5275 -11.9375 32.1875 C-11.96215504 27.79093827 -11.98033842 23.3944128 -11.99243164 18.99780273 C-11.99747121 17.50105082 -12.00430287 16.00430384 -12.01293945 14.50756836 C-12.02502159 12.36050193 -12.03073191 10.21350038 -12.03515625 8.06640625 C-12.04039307 6.7729126 -12.04562988 5.47941895 -12.05102539 4.14672852 C-11.80748005 -2.20168665 -5.05226712 0.00315569 0 0 Z " fill="#D8DDE1" transform="translate(148.9375,24.8125)"/>
<path d="M0 0 C3.42118944 1.52140452 6.01466733 3.53360339 8.875 5.9375 C13.99358652 10.19837742 19.20666047 14.31629615 24.49169922 18.36889648 C28.89098064 21.78196129 28.89098064 21.78196129 30 24 C24.60561412 23.63551447 21.36938275 20.49144745 17.375 17.1875 C16.70726562 16.65318359 16.03953125 16.11886719 15.3515625 15.56835938 C12.09948521 12.92442054 9.42260776 10.44846772 7 7 C6.154375 6.505 5.30875 6.01 4.4375 5.5 C1.80919311 3.88258038 1.07499343 2.83407359 0 0 Z " fill="#5E7286" transform="translate(267,75)"/>
<path d="M0 0 C2.00720923 0.28674418 4.0085944 0.61866701 6 1 C6 1.66 6 2.32 6 3 C4.35 3 2.7 3 1 3 C1 13.23 1 23.46 1 34 C-1.10440149 29.79119702 -1.24638733 27.90187636 -1.23046875 23.30078125 C-1.22756836 21.36428711 -1.22756836 21.36428711 -1.22460938 19.38867188 C-1.21840576 18.7202124 -1.21220215 18.05175293 -1.20581055 17.36303711 C-1.18746836 15.3089569 -1.1853016 13.25532572 -1.18554688 11.20117188 C-1.14020451 1.14020451 -1.14020451 1.14020451 0 0 Z " fill="#DEE2E6" transform="translate(227,69)"/>
<path d="M0 0 C0.66 0.33 1.32 0.66 2 1 C-3.59858759 7.96442659 -8.63889436 12.68348628 -17 16 C-16.24432948 19.78630702 -14.87402727 21.4041044 -12 24 C-14.375 23.6875 -14.375 23.6875 -17 23 C-19.16551116 19.75173326 -19.55156953 18.76905843 -19 15 C-17.00567296 12.39203387 -15.2896068 11.13470084 -12.3125 9.75 C-7.55755193 7.23795196 -3.90896042 3.65704964 0 0 Z " fill="#4C6378" transform="translate(263,39)"/>
<path d="M0 0 C6 0 6 0 8.59765625 2.01171875 C9.41105469 2.89472656 10.22445312 3.77773437 11.0625 4.6875 C11.87847656 5.55761719 12.69445312 6.42773438 13.53515625 7.32421875 C14.34855469 8.20722656 15.16195312 9.09023437 16 10 C17.65972713 11.67357743 19.32439698 13.34231786 21 15 C17.62537285 14.45276317 15.91765 13.9451 13 12 C12.54625 11.236875 12.0925 10.47375 11.625 9.6875 C8.79387856 5.00526069 6.35723874 2.33930968 1 1 C1 10.57 1 20.14 1 30 C0.34 29.67 -0.32 29.34 -1 29 C-0.67 19.43 -0.34 9.86 0 0 Z " fill="#5A7084" transform="translate(230,74)"/>
<path d="M0 0 C7.26 0 14.52 0 22 0 C21.67 0.99 21.34 1.98 21 3 C14.07 3 7.14 3 0 3 C0 2.01 0 1.02 0 0 Z " fill="#001635" transform="translate(118,106)"/>
<path d="M0 0 C5.27925803 1.95528075 8.00887907 6.23014119 10.640625 10.9296875 C12.82625037 16.21528263 12.31752621 21.81970096 12.1875 27.4375 C12.17396484 28.55060547 12.16042969 29.66371094 12.14648438 30.81054688 C12.11132997 33.54087212 12.06212106 36.27017744 12 39 C11.01 39.495 11.01 39.495 10 40 C10.02618408 39.38592285 10.05236816 38.7718457 10.0793457 38.13916016 C11.11506114 22.21755889 11.11506114 22.21755889 5 8 C4.24900142 6.83397588 3.49888643 5.66738178 2.75 4.5 C2.1725 3.675 1.595 2.85 1 2 C0.67 1.34 0.34 0.68 0 0 Z " fill="#94A2AE" transform="translate(182,15)"/>
<path d="M0 0 C6.6 0 13.2 0 20 0 C19.67 0.99 19.34 1.98 19 3 C12.4 3 5.8 3 -1 3 C-0.67 2.01 -0.34 1.02 0 0 Z " fill="#001535" transform="translate(209,106)"/>
<path d="M0 0 C6.93 0 13.86 0 21 0 C20.67 0.99 20.34 1.98 20 3 C17.04160645 3.02689449 14.08345573 3.04678741 11.125 3.0625 C9.86236328 3.07506836 9.86236328 3.07506836 8.57421875 3.08789062 C7.76855469 3.09111328 6.96289062 3.09433594 6.1328125 3.09765625 C5.01737061 3.10551147 5.01737061 3.10551147 3.87939453 3.11352539 C2 3 2 3 0 2 C0 1.34 0 0.68 0 0 Z " fill="#001535" transform="translate(79,106)"/>
<path d="M0 0 C6.27 0 12.54 0 19 0 C19 0.99 19 1.98 19 3 C12.4 3 5.8 3 -1 3 C-0.67 2.01 -0.34 1.02 0 0 Z " fill="#001535" transform="translate(11,106)"/>
<path d="M0 0 C0.33 0 0.66 0 1 0 C1 9.9 1 19.8 1 30 C3.9195043 30.9731681 6.05444951 31.1929546 9.10546875 31.31640625 C10.08837891 31.35830078 11.07128906 31.40019531 12.08398438 31.44335938 C13.10814453 31.48267578 14.13230469 31.52199219 15.1875 31.5625 C16.22326172 31.60568359 17.25902344 31.64886719 18.32617188 31.69335938 C20.8839819 31.79944366 23.44188845 31.90150146 26 32 C26 32.33 26 32.66 26 33 C22.04172765 33.05785647 18.0835633 33.09354717 14.125 33.125 C12.99707031 33.14175781 11.86914062 33.15851563 10.70703125 33.17578125 C9.09248047 33.18544922 9.09248047 33.18544922 7.4453125 33.1953125 C5.95281982 33.21102295 5.95281982 33.21102295 4.43017578 33.22705078 C2 33 2 33 0 31 C-0.22705078 27.92724609 -0.22705078 27.92724609 -0.1953125 24.0234375 C-0.1924826 23.33819 -0.18965271 22.6529425 -0.18673706 21.94692993 C-0.17553281 19.75610973 -0.15042859 17.56569684 -0.125 15.375 C-0.11497048 13.8906309 -0.10584458 12.4062554 -0.09765625 10.921875 C-0.07559294 7.28111739 -0.04106176 3.64059844 0 0 Z " fill="#173651" transform="translate(76,73)"/>
<path d="M0 0 C4.68139254 -0.02465288 9.36274759 -0.04283739 14.04418945 -0.05493164 C15.63794614 -0.05997157 17.23169819 -0.0668035 18.82543945 -0.07543945 C21.11150253 -0.08751999 23.39750467 -0.09323155 25.68359375 -0.09765625 C26.40026718 -0.10281754 27.11694061 -0.10797882 27.85533142 -0.11329651 C29.57063672 -0.11349263 31.28581266 -0.06192007 33 0 C34 1 34 1 34.0625 3.5625 C34.041875 4.366875 34.02125 5.17125 34 6 C32.35 6.33 30.7 6.66 29 7 C29.33 6.34 29.66 5.68 30 5 C30.66 5 31.32 5 32 5 C31.505 3.515 31.505 3.515 31 2 C26.7641643 1.97530679 22.52836658 1.95714329 18.29248047 1.94506836 C16.8510668 1.94003526 15.40965824 1.93320827 13.96826172 1.92456055 C11.89809915 1.91245017 9.82800399 1.90676153 7.7578125 1.90234375 C5.88826904 1.89448853 5.88826904 1.89448853 3.98095703 1.88647461 C1.07228894 1.79183413 1.07228894 1.79183413 -1 3 C-0.67 2.01 -0.34 1.02 0 0 Z " fill="#314C64" transform="translate(267,7)"/>
<path d="M0 0 C7.59 0 15.18 0 23 0 C23 0.66 23 1.32 23 2 C22.40461426 2.02505615 21.80922852 2.0501123 21.19580078 2.07592773 C18.50530864 2.19177494 15.8151766 2.31455196 13.125 2.4375 C12.18785156 2.47681641 11.25070313 2.51613281 10.28515625 2.55664062 C8.94130859 2.61948242 8.94130859 2.61948242 7.5703125 2.68359375 C6.74289551 2.72025146 5.91547852 2.75690918 5.06298828 2.79467773 C2.93820571 2.88238327 2.93820571 2.88238327 1 4 C0.67 2.68 0.34 1.36 0 0 Z " fill="#001535" transform="translate(141,31)"/>
<path d="M0 0 C2.60513959 3.90770938 2.29367565 7.22229079 2.25 11.75 C2.25773438 12.53632812 2.26546875 13.32265625 2.2734375 14.1328125 C2.25683836 19.12915245 1.59566195 23.26367009 0 28 C-0.33 28 -0.66 28 -1 28 C-1.0272415 26.58344207 -1.04650467 25.16672955 -1.0625 23.75 C-1.07410156 22.96109375 -1.08570313 22.1721875 -1.09765625 21.359375 C-1 19 -1 19 -0.5 17.1875 C0.25231977 13.896101 0.10374178 10.60644656 0.0625 7.25 C0.05573242 6.20392578 0.05573242 6.20392578 0.04882812 5.13671875 C0.0371002 3.42444197 0.01916653 1.71220967 0 0 Z " fill="#D8DDE2" transform="translate(191,30)"/>
<path d="M0 0 C6.64398897 0.42184057 12.2083865 1.57415719 18 5 C18.33 5.66 18.66 6.32 19 7 C17.68 7 16.36 7 15 7 C14.67 6.34 14.34 5.68 14 5 C11.53037395 4.39271491 9.05649207 4.04256822 6.54296875 3.66015625 C3.75556565 2.93654469 2.17099597 1.85723898 0 0 Z " fill="#D1D7DC" transform="translate(164,10)"/>
<path d="M0 0 C4.14465217 1.18418633 6.1116888 3.01871379 8.73046875 6.40234375 C10.63602473 8.80041266 12.8046903 10.86741343 15 13 C14.4225 12.690625 13.845 12.38125 13.25 12.0625 C11.08659691 10.90747972 11.08659691 10.90747972 8.875 10.6875 C8.25625 10.460625 7.6375 10.23375 7 10 C6.31867549 8.33927151 5.65257873 6.672233 5 5 C2.98330173 3.86649466 2.98330173 3.86649466 1 3 C0.67 2.01 0.34 1.02 0 0 Z " fill="#40596F" transform="translate(251,89)"/>
<path d="M0 0 C3.71045247 1.57780923 6.29906384 3.90703248 9.25 6.625 C10.14203125 7.44226563 11.0340625 8.25953125 11.953125 9.1015625 C12.96632813 10.04128906 12.96632813 10.04128906 14 11 C11 11 11 11 8 10 C8 9.34 8 8.68 8 8 C7.401875 7.938125 6.80375 7.87625 6.1875 7.8125 C2.57441547 6.47049717 1.64483163 3.28966325 0 0 Z " fill="#AEB9C2" transform="translate(251,63)"/>
<path d="M0 0 C1.51400391 0.01740234 1.51400391 0.01740234 3.05859375 0.03515625 C4.07050781 0.04417969 5.08242187 0.05320313 6.125 0.0625 C7.29869141 0.07990234 7.29869141 0.07990234 8.49609375 0.09765625 C8.16609375 1.08765625 7.83609375 2.07765625 7.49609375 3.09765625 C6.23796875 3.13890625 4.97984375 3.18015625 3.68359375 3.22265625 C2.97589844 3.24585938 2.26820313 3.2690625 1.5390625 3.29296875 C-0.50390625 3.09765625 -0.50390625 3.09765625 -3.50390625 1.09765625 C-2.50390625 0.09765625 -2.50390625 0.09765625 0 0 Z " fill="#001635" transform="translate(158.50390625,3.90234375)"/>
<path d="M0 0 C0.66 0.33 1.32 0.66 2 1 C1.319375 1.5775 0.63875 2.155 -0.0625 2.75 C-2.21750771 4.7577157 -2.21750771 4.7577157 -2 7 C-0.7407491 9.51850179 0.92196105 11.1230616 3 13 C0.625 12.6875 0.625 12.6875 -2 12 C-4.16551116 8.75173326 -4.55156953 7.76905843 -4 4 C-2 1.6875 -2 1.6875 0 0 Z " fill="#A3AEBA" transform="translate(248,50)"/>
<path d="M0 0 C4.23394447 1.56812758 6.47032152 4.34601998 9 8 C9.3125 11.375 9.3125 11.375 9 14 C8.34 13.01 7.68 12.02 7 11 C6.51402344 10.27683594 6.02804688 9.55367187 5.52734375 8.80859375 C5.00269531 8.02613281 4.47804687 7.24367188 3.9375 6.4375 C3.41027344 5.65246094 2.88304687 4.86742187 2.33984375 4.05859375 C1 2 1 2 0 0 Z " fill="#ABB6C0" transform="translate(182,15)"/>
<path d="M0 0 C0.33 0.66 0.66 1.32 1 2 C-2.08290155 6.22797927 -2.08290155 6.22797927 -4 8 C-6.8125 8.375 -6.8125 8.375 -9 8 C-6.14723863 5.06799526 -3.34920216 2.35684596 0 0 Z " fill="#213D57" transform="translate(188,65)"/>
<path d="M0 0 C3.16115776 1.36983503 3.9927092 1.9890638 6 5 C7.65948148 6.01187895 9.32580562 7.0126546 11 8 C11.33 8.66 11.66 9.32 12 10 C10.65608877 9.35492261 9.32646156 8.6802367 8 8 C7.40960938 7.70867187 6.81921875 7.41734375 6.2109375 7.1171875 C1.20974901 4.50339763 1.20974901 4.50339763 0.0625 1.75 C0.041875 1.1725 0.02125 0.595 0 0 Z " fill="#BAC3CB" transform="translate(265,75)"/>
<path d="M0 0 C2.31 0 4.62 0 7 0 C6.01 0.495 6.01 0.495 5 1 C5 1.66 5 2.32 5 3 C2.69 3.33 0.38 3.66 -2 4 C-1.34 2.68 -0.68 1.36 0 0 Z " fill="#BAC3CB" transform="translate(172,70)"/>
<path d="M0 0 C0.66 0.33 1.32 0.66 2 1 C-1.51582826 5.66283606 -4.03648545 8.72210402 -10 10 C-6.66666667 6.66666667 -3.33333333 3.33333333 0 0 Z " fill="#15324D" transform="translate(272,33)"/>
<path d="M0 0 C4.41889613 1.35021826 6.34345343 3.26115668 9 7 C7 6 7 6 5 5 C4.278125 4.690625 3.55625 4.38125 2.8125 4.0625 C1 3 1 3 0 0 Z " fill="#778899" transform="translate(251,89)"/>
<path d="M0 0 C5.75 1.625 5.75 1.625 8 5 C4.62537285 4.45276317 2.91765 3.9451 0 2 C0 1.34 0 0.68 0 0 Z " fill="#435A71" transform="translate(243,84)"/>
<path d="M0 0 C0.66 0.33 1.32 0.66 2 1 C0.77065985 4.68802044 -0.93859378 5.72356973 -4 8 C-4.66 7.67 -5.32 7.34 -6 7 C-4.02 4.69 -2.04 2.38 0 0 Z " fill="#C3CBD1" transform="translate(244,29)"/>
</svg>
